<svg width="60" height="60" viewBox="0 0 60 60" fill="none" xmlns="http://www.w3.org/2000/svg">
<rect width="60" height="60" rx="30" fill="white"/>
<path d="M39.3335 20.6667H20.6668C19.38 20.6667 18.3335 21.7132 18.3335 23.0001V37.0001C18.3335 38.2869 19.38 39.3334 20.6668 39.3334H39.3335C40.6203 39.3334 41.6668 38.2869 41.6668 37.0001V23.0001C41.6668 21.7132 40.6203 20.6667 39.3335 20.6667ZM39.3335 23.0001V23.5962L30.0002 30.8564L20.6668 23.5974V23.0001H39.3335ZM20.6668 37.0001V26.5514L29.2838 33.2539C29.4938 33.4184 29.747 33.5001 30.0002 33.5001C30.2533 33.5001 30.5065 33.4184 30.7165 33.2539L39.3335 26.5514L39.3358 37.0001H20.6668Z" fill="#6366F1"/>
</svg>
