<svg width="196" height="166" viewBox="0 0 196 166" fill="none" xmlns="http://www.w3.org/2000/svg">
<rect x="0.5" y="0.5" width="195" height="165" rx="7.5" stroke="#E2E5F1"/>
<path d="M38.0547 25C45.7443 25 52 30.5195 52 37.3047C52 40.171 50.8657 42.9483 48.8013 45.1497C48.3927 46.8344 48.8886 48.6192 50.1191 49.8497C50.6336 50.3642 50.2697 51.25 49.5391 51.25C47.2015 51.25 44.948 50.3344 43.2738 48.7194C41.6171 49.3106 39.8644 49.6094 38.0547 49.6094C30.3651 49.6094 24 44.0899 24 37.3047C24 30.5195 30.3651 25 38.0547 25ZM44.5078 39.7656C45.8648 39.7656 46.9688 38.6617 46.9688 37.3047C46.9688 35.9477 45.8648 34.8438 44.5078 34.8438C43.1508 34.8438 42.0469 35.9477 42.0469 37.3047C42.0469 38.6617 43.1508 39.7656 44.5078 39.7656ZM37.9453 39.7656C39.3023 39.7656 40.4062 38.6617 40.4062 37.3047C40.4062 35.9477 39.3023 34.8438 37.9453 34.8438C36.5883 34.8438 35.4844 35.9477 35.4844 37.3047C35.4844 38.6617 36.5883 39.7656 37.9453 39.7656ZM31.3828 39.7656C32.7398 39.7656 33.8438 38.6617 33.8438 37.3047C33.8438 35.9477 32.7398 34.8438 31.3828 34.8438C30.0258 34.8438 28.9219 35.9477 28.9219 37.3047C28.9219 38.6617 30.0258 39.7656 31.3828 39.7656Z" fill="#22C55E"/>
<path d="M24.98 84V73.92H28.039C28.1463 73.92 28.3283 73.9223 28.585 73.927C28.8463 73.9317 29.096 73.9503 29.334 73.983C30.0993 74.0903 30.7387 74.375 31.252 74.837C31.7653 75.299 32.1503 75.887 32.407 76.601C32.6637 77.315 32.792 78.1013 32.792 78.96C32.792 79.8187 32.6637 80.605 32.407 81.319C32.1503 82.033 31.7653 82.621 31.252 83.083C30.7387 83.545 30.0993 83.8297 29.334 83.937C29.1007 83.965 28.851 83.9837 28.585 83.993C28.319 83.9977 28.137 84 28.039 84H24.98ZM26.044 83.013H28.039C28.2303 83.013 28.4357 83.0083 28.655 82.999C28.879 82.985 29.0703 82.9617 29.229 82.929C29.817 82.8263 30.2907 82.5883 30.65 82.215C31.014 81.8417 31.28 81.375 31.448 80.815C31.616 80.2503 31.7 79.632 31.7 78.96C31.7 78.2833 31.616 77.6627 31.448 77.098C31.28 76.5333 31.014 76.0667 30.65 75.698C30.286 75.3293 29.8123 75.0937 29.229 74.991C29.0703 74.9583 28.8767 74.9373 28.648 74.928C28.424 74.914 28.221 74.907 28.039 74.907H26.044V83.013ZM37.5433 84.21C36.7919 84.21 36.1503 84.0397 35.6183 83.699C35.0863 83.3583 34.6779 82.887 34.3933 82.285C34.1086 81.683 33.9663 80.9923 33.9663 80.213C33.9663 79.4197 34.1109 78.7243 34.4003 78.127C34.6896 77.5297 35.1003 77.0653 35.6323 76.734C36.1689 76.398 36.8059 76.23 37.5433 76.23C38.2993 76.23 38.9433 76.4003 39.4753 76.741C40.0119 77.077 40.4203 77.546 40.7003 78.148C40.9849 78.7453 41.1273 79.4337 41.1273 80.213C41.1273 81.0063 40.9849 81.704 40.7003 82.306C40.4156 82.9033 40.0049 83.37 39.4683 83.706C38.9316 84.042 38.2899 84.21 37.5433 84.21ZM37.5433 83.223C38.3833 83.223 39.0086 82.9453 39.4193 82.39C39.8299 81.83 40.0353 81.1043 40.0353 80.213C40.0353 79.2983 39.8276 78.5703 39.4123 78.029C39.0016 77.4877 38.3786 77.217 37.5433 77.217C36.9786 77.217 36.5119 77.3453 36.1433 77.602C35.7793 77.854 35.5063 78.2063 35.3243 78.659C35.1469 79.107 35.0583 79.625 35.0583 80.213C35.0583 81.123 35.2683 81.8533 35.6883 82.404C36.1083 82.95 36.7266 83.223 37.5433 83.223ZM48.1314 84V80.143C48.1314 79.723 48.0917 79.338 48.0124 78.988C47.9331 78.6333 47.8047 78.3253 47.6274 78.064C47.4547 77.798 47.2284 77.5927 46.9484 77.448C46.6731 77.3033 46.3371 77.231 45.9404 77.231C45.5764 77.231 45.2544 77.294 44.9744 77.42C44.6991 77.546 44.4657 77.728 44.2744 77.966C44.0877 78.1993 43.9454 78.484 43.8474 78.82C43.7494 79.156 43.7004 79.5387 43.7004 79.968L42.9724 79.807C42.9724 79.0323 43.1077 78.3813 43.3784 77.854C43.6491 77.3267 44.0224 76.9277 44.4984 76.657C44.9744 76.3863 45.5204 76.251 46.1364 76.251C46.5891 76.251 46.9834 76.321 47.3194 76.461C47.6601 76.601 47.9471 76.79 48.1804 77.028C48.4184 77.266 48.6097 77.539 48.7544 77.847C48.8991 78.1503 49.0041 78.4747 49.0694 78.82C49.1347 79.1607 49.1674 79.5013 49.1674 79.842V84H48.1314ZM42.6644 84V76.44H43.5954V78.302H43.7004V84H42.6644ZM50.2834 76.44V73.92H51.3124V76.44H50.2834ZM57.5335 84C57.1088 84.0887 56.6888 84.1237 56.2735 84.105C55.8628 84.0863 55.4942 83.9977 55.1675 83.839C54.8455 83.6803 54.6005 83.433 54.4325 83.097C54.2972 82.817 54.2225 82.5347 54.2085 82.25C54.1992 81.9607 54.1945 81.6317 54.1945 81.263V74.34H55.2165V81.221C55.2165 81.5383 55.2188 81.8043 55.2235 82.019C55.2328 82.229 55.2818 82.4157 55.3705 82.579C55.5385 82.8917 55.8045 83.0783 56.1685 83.139C56.5372 83.1997 56.9922 83.1857 57.5335 83.097V84ZM52.5775 77.322V76.44H57.5335V77.322H52.5775ZM61.9657 84V73.71H62.9947V84H61.9657ZM65.2333 75.005V73.85H66.2623V75.005H65.2333ZM65.2333 84V76.44H66.2623V84H65.2333ZM68.3539 84L68.3609 73.92H69.3969V80.08L72.7709 76.44H74.1429L70.6009 80.22L74.6049 84H73.1069L69.3969 80.36V84H68.3539ZM78.3685 84.21C77.6311 84.21 76.9918 84.0467 76.4505 83.72C75.9138 83.3933 75.4961 82.9337 75.1975 82.341C74.8988 81.7483 74.7495 81.053 74.7495 80.255C74.7495 79.429 74.8965 78.715 75.1905 78.113C75.4845 77.511 75.8975 77.0467 76.4295 76.72C76.9661 76.3933 77.5985 76.23 78.3265 76.23C79.0731 76.23 79.7101 76.4027 80.2375 76.748C80.7648 77.0887 81.1638 77.5787 81.4345 78.218C81.7051 78.8573 81.8288 79.6203 81.8055 80.507H80.7555V80.143C80.7368 79.163 80.5245 78.4233 80.1185 77.924C79.7171 77.4247 79.1291 77.175 78.3545 77.175C77.5425 77.175 76.9195 77.4387 76.4855 77.966C76.0561 78.4933 75.8415 79.2447 75.8415 80.22C75.8415 81.172 76.0561 81.9117 76.4855 82.439C76.9195 82.9617 77.5331 83.223 78.3265 83.223C78.8678 83.223 79.3391 83.0993 79.7405 82.852C80.1465 82.6 80.4661 82.2383 80.6995 81.767L81.6585 82.138C81.3598 82.796 80.9188 83.307 80.3355 83.671C79.7568 84.0303 79.1011 84.21 78.3685 84.21ZM75.4775 80.507V79.646H81.2525V80.507H75.4775ZM89.5566 84.21C88.8613 84.21 88.2733 84.035 87.7926 83.685C87.312 83.3303 86.948 82.852 86.7006 82.25C86.4533 81.6433 86.3296 80.9643 86.3296 80.213C86.3296 79.4477 86.4533 78.7663 86.7006 78.169C86.9526 77.567 87.3213 77.0933 87.8066 76.748C88.292 76.4027 88.8893 76.23 89.5986 76.23C90.2893 76.23 90.882 76.405 91.3766 76.755C91.8713 77.105 92.2493 77.581 92.5106 78.183C92.7766 78.785 92.9096 79.4617 92.9096 80.213C92.9096 80.969 92.7766 81.648 92.5106 82.25C92.2446 82.852 91.862 83.3303 91.3626 83.685C90.8633 84.035 90.2613 84.21 89.5566 84.21ZM86.1546 87.36V76.44H87.0786V82.131H87.1906V87.36H86.1546ZM89.4516 83.251C89.979 83.251 90.4176 83.118 90.7676 82.852C91.1176 82.586 91.379 82.2243 91.5516 81.767C91.729 81.305 91.8176 80.787 91.8176 80.213C91.8176 79.6437 91.7313 79.1303 91.5586 78.673C91.386 78.2157 91.1223 77.854 90.7676 77.588C90.4176 77.322 89.972 77.189 89.4306 77.189C88.9033 77.189 88.4646 77.3173 88.1146 77.574C87.7693 77.8307 87.5103 78.1877 87.3376 78.645C87.165 79.0977 87.0786 79.6203 87.0786 80.213C87.0786 80.7963 87.165 81.319 87.3376 81.781C87.5103 82.2383 87.7716 82.5977 88.1216 82.859C88.4716 83.1203 88.915 83.251 89.4516 83.251ZM99.9068 84V80.143C99.9068 79.723 99.8671 79.338 99.7878 78.988C99.7085 78.6333 99.5801 78.3253 99.4028 78.064C99.2301 77.798 99.0038 77.5927 98.7238 77.448C98.4485 77.3033 98.1125 77.231 97.7158 77.231C97.3518 77.231 97.0298 77.294 96.7498 77.42C96.4745 77.546 96.2411 77.728 96.0498 77.966C95.8631 78.1993 95.7208 78.484 95.6228 78.82C95.5248 79.156 95.4758 79.5387 95.4758 79.968L94.7478 79.807C94.7478 79.0323 94.8831 78.3813 95.1538 77.854C95.4245 77.3267 95.7978 76.9277 96.2738 76.657C96.7498 76.3863 97.2958 76.251 97.9118 76.251C98.3645 76.251 98.7588 76.321 99.0948 76.461C99.4355 76.601 99.7225 76.79 99.9558 77.028C100.194 77.266 100.385 77.539 100.53 77.847C100.674 78.1503 100.779 78.4747 100.845 78.82C100.91 79.1607 100.943 79.5013 100.943 79.842V84H99.9068ZM94.4398 84V73.92H95.3708V79.611H95.4758V84H94.4398ZM105.916 84.21C105.165 84.21 104.523 84.0397 103.991 83.699C103.459 83.3583 103.051 82.887 102.766 82.285C102.482 81.683 102.339 80.9923 102.339 80.213C102.339 79.4197 102.484 78.7243 102.773 78.127C103.063 77.5297 103.473 77.0653 104.005 76.734C104.542 76.398 105.179 76.23 105.916 76.23C106.672 76.23 107.316 76.4003 107.848 76.741C108.385 77.077 108.793 77.546 109.073 78.148C109.358 78.7453 109.5 79.4337 109.5 80.213C109.5 81.0063 109.358 81.704 109.073 82.306C108.789 82.9033 108.378 83.37 107.841 83.706C107.305 84.042 106.663 84.21 105.916 84.21ZM105.916 83.223C106.756 83.223 107.382 82.9453 107.792 82.39C108.203 81.83 108.408 81.1043 108.408 80.213C108.408 79.2983 108.201 78.5703 107.785 78.029C107.375 77.4877 106.752 77.217 105.916 77.217C105.352 77.217 104.885 77.3453 104.516 77.602C104.152 77.854 103.879 78.2063 103.697 78.659C103.52 79.107 103.431 79.625 103.431 80.213C103.431 81.123 103.641 81.8533 104.061 82.404C104.481 82.95 105.1 83.223 105.916 83.223ZM116.504 84V80.143C116.504 79.723 116.465 79.338 116.385 78.988C116.306 78.6333 116.178 78.3253 116 78.064C115.828 77.798 115.601 77.5927 115.321 77.448C115.046 77.3033 114.71 77.231 114.313 77.231C113.949 77.231 113.627 77.294 113.347 77.42C113.072 77.546 112.839 77.728 112.647 77.966C112.461 78.1993 112.318 78.484 112.22 78.82C112.122 79.156 112.073 79.5387 112.073 79.968L111.345 79.807C111.345 79.0323 111.481 78.3813 111.751 77.854C112.022 77.3267 112.395 76.9277 112.871 76.657C113.347 76.3863 113.893 76.251 114.509 76.251C114.962 76.251 115.356 76.321 115.692 76.461C116.033 76.601 116.32 76.79 116.553 77.028C116.791 77.266 116.983 77.539 117.127 77.847C117.272 78.1503 117.377 78.4747 117.442 78.82C117.508 79.1607 117.54 79.5013 117.54 79.842V84H116.504ZM111.037 84V76.44H111.968V78.302H112.073V84H111.037ZM122.515 84.21C121.778 84.21 121.138 84.0467 120.597 83.72C120.06 83.3933 119.643 82.9337 119.344 82.341C119.045 81.7483 118.896 81.053 118.896 80.255C118.896 79.429 119.043 78.715 119.337 78.113C119.631 77.511 120.044 77.0467 120.576 76.72C121.113 76.3933 121.745 76.23 122.473 76.23C123.22 76.23 123.857 76.4027 124.384 76.748C124.911 77.0887 125.31 77.5787 125.581 78.218C125.852 78.8573 125.975 79.6203 125.952 80.507H124.902V80.143C124.883 79.163 124.671 78.4233 124.265 77.924C123.864 77.4247 123.276 77.175 122.501 77.175C121.689 77.175 121.066 77.4387 120.632 77.966C120.203 78.4933 119.988 79.2447 119.988 80.22C119.988 81.172 120.203 81.9117 120.632 82.439C121.066 82.9617 121.68 83.223 122.473 83.223C123.014 83.223 123.486 83.0993 123.887 82.852C124.293 82.6 124.613 82.2383 124.846 81.767L125.805 82.138C125.506 82.796 125.065 83.307 124.482 83.671C123.903 84.0303 123.248 84.21 122.515 84.21ZM119.624 80.507V79.646H125.399V80.507H119.624ZM133.444 84.21C132.683 84.21 132.039 84.0397 131.512 83.699C130.985 83.3583 130.583 82.8893 130.308 82.292C130.037 81.69 129.897 80.9993 129.888 80.22C129.897 79.4267 130.042 78.7313 130.322 78.134C130.602 77.532 131.006 77.0653 131.533 76.734C132.06 76.398 132.7 76.23 133.451 76.23C134.216 76.23 134.881 76.4167 135.446 76.79C136.015 77.1633 136.405 77.6743 136.615 78.323L135.607 78.645C135.43 78.1923 135.147 77.8423 134.76 77.595C134.377 77.343 133.939 77.217 133.444 77.217C132.889 77.217 132.429 77.3453 132.065 77.602C131.701 77.854 131.43 78.2063 131.253 78.659C131.076 79.1117 130.985 79.632 130.98 80.22C130.989 81.1253 131.199 81.8533 131.61 82.404C132.021 82.95 132.632 83.223 133.444 83.223C133.957 83.223 134.394 83.1063 134.753 82.873C135.117 82.635 135.392 82.2897 135.579 81.837L136.615 82.145C136.335 82.817 135.924 83.3303 135.383 83.685C134.842 84.035 134.195 84.21 133.444 84.21ZM140.182 84.21C139.613 84.21 139.134 84.1073 138.747 83.902C138.364 83.6967 138.077 83.4237 137.886 83.083C137.695 82.7423 137.599 82.3713 137.599 81.97C137.599 81.5593 137.681 81.2093 137.844 80.92C138.012 80.626 138.238 80.3857 138.523 80.199C138.812 80.0123 139.146 79.87 139.524 79.772C139.907 79.6787 140.329 79.597 140.791 79.527C141.258 79.4523 141.713 79.3893 142.156 79.338C142.604 79.282 142.996 79.2283 143.332 79.177L142.968 79.401C142.982 78.6543 142.837 78.1013 142.534 77.742C142.231 77.3827 141.703 77.203 140.952 77.203C140.434 77.203 139.995 77.3197 139.636 77.553C139.281 77.7863 139.032 78.155 138.887 78.659L137.886 78.365C138.059 77.6883 138.406 77.1633 138.929 76.79C139.452 76.4167 140.131 76.23 140.966 76.23C141.657 76.23 142.242 76.3607 142.723 76.622C143.208 76.8787 143.551 77.252 143.752 77.742C143.845 77.9613 143.906 78.2063 143.934 78.477C143.962 78.7477 143.976 79.023 143.976 79.303V84H143.059V82.103L143.325 82.215C143.068 82.8637 142.669 83.3583 142.128 83.699C141.587 84.0397 140.938 84.21 140.182 84.21ZM140.301 83.321C140.782 83.321 141.202 83.2347 141.561 83.062C141.92 82.8893 142.21 82.6537 142.429 82.355C142.648 82.0517 142.791 81.711 142.856 81.333C142.912 81.0903 142.942 80.8243 142.947 80.535C142.952 80.241 142.954 80.0217 142.954 79.877L143.346 80.08C142.996 80.1267 142.616 80.1733 142.205 80.22C141.799 80.2667 141.398 80.3203 141.001 80.381C140.609 80.4417 140.254 80.514 139.937 80.598C139.722 80.6587 139.515 80.745 139.314 80.857C139.113 80.9643 138.948 81.109 138.817 81.291C138.691 81.473 138.628 81.6993 138.628 81.97C138.628 82.1893 138.682 82.4017 138.789 82.607C138.901 82.8123 139.078 82.9827 139.321 83.118C139.568 83.2533 139.895 83.321 140.301 83.321ZM145.938 84V73.71H146.967V84H145.938ZM149.206 84V73.71H150.235V84H149.206ZM155.155 84.203C154.268 84.203 153.538 84.0117 152.964 83.629C152.394 83.2463 152.044 82.7143 151.914 82.033L152.964 81.858C153.076 82.2873 153.33 82.6303 153.727 82.887C154.128 83.139 154.623 83.265 155.211 83.265C155.785 83.265 156.237 83.146 156.569 82.908C156.9 82.6653 157.066 82.3363 157.066 81.921C157.066 81.6877 157.012 81.4987 156.905 81.354C156.802 81.2047 156.59 81.067 156.268 80.941C155.946 80.815 155.465 80.6657 154.826 80.493C154.14 80.3063 153.603 80.1197 153.216 79.933C152.828 79.7463 152.553 79.5317 152.39 79.289C152.226 79.0417 152.145 78.7407 152.145 78.386C152.145 77.9567 152.266 77.581 152.509 77.259C152.751 76.9323 153.087 76.6803 153.517 76.503C153.946 76.321 154.445 76.23 155.015 76.23C155.584 76.23 156.093 76.3233 156.541 76.51C156.993 76.692 157.357 76.9487 157.633 77.28C157.908 77.6113 158.071 77.9963 158.123 78.435L157.073 78.624C157.003 78.1807 156.781 77.8307 156.408 77.574C156.039 77.3127 155.57 77.1773 155.001 77.168C154.464 77.154 154.028 77.2567 153.692 77.476C153.356 77.6907 153.188 77.9777 153.188 78.337C153.188 78.5377 153.248 78.7103 153.37 78.855C153.491 78.995 153.71 79.128 154.028 79.254C154.35 79.38 154.807 79.5177 155.4 79.667C156.095 79.8443 156.641 80.031 157.038 80.227C157.434 80.423 157.717 80.654 157.885 80.92C158.053 81.186 158.137 81.515 158.137 81.907C158.137 82.621 157.871 83.1833 157.339 83.594C156.811 84 156.083 84.203 155.155 84.203ZM161.663 81.249C161.663 80.885 161.679 80.5653 161.712 80.29C161.749 80.01 161.843 79.73 161.992 79.45C162.132 79.184 162.305 78.9647 162.51 78.792C162.715 78.6147 162.93 78.449 163.154 78.295C163.378 78.1363 163.59 77.9497 163.791 77.735C163.973 77.525 164.094 77.3127 164.155 77.098C164.216 76.8833 164.246 76.657 164.246 76.419C164.246 76.181 164.216 75.9687 164.155 75.782C164.099 75.5953 164.01 75.4343 163.889 75.299C163.702 75.0703 163.474 74.914 163.203 74.83C162.932 74.746 162.65 74.704 162.356 74.704C162.067 74.704 161.796 74.746 161.544 74.83C161.297 74.9093 161.091 75.033 160.928 75.201C160.769 75.3503 160.653 75.53 160.578 75.74C160.508 75.95 160.473 76.1717 160.473 76.405H159.409C159.428 76.0363 159.507 75.677 159.647 75.327C159.792 74.9723 160.002 74.676 160.277 74.438C160.552 74.186 160.872 74.004 161.236 73.892C161.605 73.7753 161.976 73.717 162.349 73.717C162.806 73.717 163.24 73.787 163.651 73.927C164.062 74.0623 164.407 74.291 164.687 74.613C164.911 74.851 165.074 75.124 165.177 75.432C165.284 75.7353 165.338 76.0597 165.338 76.405C165.338 76.7923 165.266 77.1563 165.121 77.497C164.976 77.8377 164.773 78.141 164.512 78.407C164.353 78.5797 164.174 78.7407 163.973 78.89C163.772 79.0347 163.579 79.1863 163.392 79.345C163.21 79.499 163.07 79.667 162.972 79.849C162.851 80.073 162.783 80.2853 162.769 80.486C162.76 80.6867 162.755 80.941 162.755 81.249H161.663ZM161.67 84V82.628H162.755V84H161.67Z" fill="#565973"/>
<path d="M29.6567 125.21C28.6487 125.21 27.7901 124.991 27.0807 124.552C26.3714 124.109 25.8277 123.493 25.4497 122.704C25.0764 121.915 24.8897 121.001 24.8897 119.96C24.8897 118.919 25.0764 118.005 25.4497 117.216C25.8277 116.427 26.3714 115.814 27.0807 115.375C27.7901 114.932 28.6487 114.71 29.6567 114.71C30.8187 114.71 31.7801 115.004 32.5407 115.592C33.3061 116.18 33.8381 116.971 34.1367 117.965L32.6527 118.364C32.4567 117.659 32.1067 117.106 31.6027 116.705C31.1034 116.304 30.4547 116.103 29.6567 116.103C28.9427 116.103 28.3477 116.264 27.8717 116.586C27.3957 116.908 27.0364 117.358 26.7937 117.937C26.5557 118.516 26.4367 119.19 26.4367 119.96C26.4321 120.73 26.5487 121.404 26.7867 121.983C27.0294 122.562 27.3887 123.012 27.8647 123.334C28.3454 123.656 28.9427 123.817 29.6567 123.817C30.4547 123.817 31.1034 123.616 31.6027 123.215C32.1067 122.809 32.4567 122.256 32.6527 121.556L34.1367 121.955C33.8381 122.949 33.3061 123.74 32.5407 124.328C31.7801 124.916 30.8187 125.21 29.6567 125.21ZM38.9593 125.21C38.2033 125.21 37.5476 125.04 36.9923 124.699C36.437 124.358 36.0076 123.889 35.7043 123.292C35.4056 122.69 35.2563 121.997 35.2563 121.213C35.2563 120.424 35.4103 119.731 35.7183 119.134C36.0263 118.532 36.458 118.065 37.0133 117.734C37.5686 117.398 38.2173 117.23 38.9593 117.23C39.7153 117.23 40.371 117.4 40.9263 117.741C41.4816 118.082 41.911 118.551 42.2143 119.148C42.5176 119.745 42.6693 120.434 42.6693 121.213C42.6693 122.002 42.5153 122.697 42.2073 123.299C41.904 123.896 41.4746 124.365 40.9193 124.706C40.364 125.042 39.7106 125.21 38.9593 125.21ZM38.9593 123.831C39.6826 123.831 40.2216 123.588 40.5763 123.103C40.9356 122.613 41.1153 121.983 41.1153 121.213C41.1153 120.424 40.9333 119.794 40.5693 119.323C40.21 118.847 39.6733 118.609 38.9593 118.609C38.4693 118.609 38.0656 118.721 37.7483 118.945C37.431 119.164 37.1953 119.47 37.0413 119.862C36.8873 120.249 36.8103 120.7 36.8103 121.213C36.8103 122.006 36.9923 122.641 37.3563 123.117C37.7203 123.593 38.2546 123.831 38.9593 123.831ZM49.5135 125V121.283C49.5135 120.989 49.4879 120.688 49.4365 120.38C49.3899 120.067 49.2965 119.778 49.1565 119.512C49.0212 119.246 48.8275 119.031 48.5755 118.868C48.3282 118.705 48.0039 118.623 47.6025 118.623C47.3412 118.623 47.0939 118.667 46.8605 118.756C46.6272 118.84 46.4219 118.978 46.2445 119.169C46.0719 119.36 45.9342 119.612 45.8315 119.925C45.7335 120.238 45.6845 120.618 45.6845 121.066L44.7745 120.723C44.7745 120.037 44.9029 119.433 45.1595 118.91C45.4162 118.383 45.7849 117.972 46.2655 117.678C46.7462 117.384 47.3272 117.237 48.0085 117.237C48.5312 117.237 48.9699 117.321 49.3245 117.489C49.6792 117.657 49.9662 117.879 50.1855 118.154C50.4095 118.425 50.5799 118.721 50.6965 119.043C50.8132 119.365 50.8925 119.68 50.9345 119.988C50.9765 120.296 50.9975 120.567 50.9975 120.8V125H49.5135ZM44.2005 125V117.44H45.5095V119.624H45.6845V125H44.2005ZM57.1468 125C56.6708 125.093 56.2042 125.133 55.7468 125.119C55.2895 125.105 54.8812 125.016 54.5218 124.853C54.1625 124.69 53.8918 124.433 53.7098 124.083C53.5465 123.77 53.4578 123.453 53.4438 123.131C53.4345 122.804 53.4298 122.436 53.4298 122.025V115.34H54.8998V121.955C54.8998 122.258 54.9022 122.522 54.9068 122.746C54.9162 122.97 54.9652 123.159 55.0538 123.313C55.2218 123.602 55.4878 123.768 55.8518 123.81C56.2205 123.847 56.6522 123.831 57.1468 123.761V125ZM51.9808 118.616V117.44H57.1468V118.616H51.9808ZM60.8757 125.21C60.3157 125.21 59.8467 125.107 59.4687 124.902C59.0907 124.692 58.8037 124.417 58.6077 124.076C58.4164 123.731 58.3207 123.353 58.3207 122.942C58.3207 122.559 58.3884 122.223 58.5237 121.934C58.6591 121.645 58.8597 121.4 59.1257 121.199C59.3917 120.994 59.7184 120.828 60.1057 120.702C60.4417 120.604 60.8221 120.518 61.2467 120.443C61.6714 120.368 62.1171 120.298 62.5837 120.233C63.0551 120.168 63.5217 120.102 63.9837 120.037L63.4517 120.331C63.4611 119.738 63.3351 119.3 63.0737 119.015C62.8171 118.726 62.3737 118.581 61.7437 118.581C61.3471 118.581 60.9831 118.674 60.6517 118.861C60.3204 119.043 60.0894 119.346 59.9587 119.771L58.5937 119.351C58.7804 118.702 59.1351 118.187 59.6577 117.804C60.1851 117.421 60.8851 117.23 61.7577 117.23C62.4344 117.23 63.0224 117.347 63.5217 117.58C64.0257 117.809 64.3944 118.173 64.6277 118.672C64.7491 118.919 64.8237 119.181 64.8517 119.456C64.8797 119.731 64.8937 120.028 64.8937 120.345V125H63.5987V123.271L63.8507 123.495C63.5381 124.074 63.1391 124.505 62.6537 124.79C62.1731 125.07 61.5804 125.21 60.8757 125.21ZM61.1347 124.013C61.5501 124.013 61.9071 123.941 62.2057 123.796C62.5044 123.647 62.7447 123.458 62.9267 123.229C63.1087 123 63.2277 122.762 63.2837 122.515C63.3631 122.291 63.4074 122.039 63.4167 121.759C63.4307 121.479 63.4377 121.255 63.4377 121.087L63.9137 121.262C63.4517 121.332 63.0317 121.395 62.6537 121.451C62.2757 121.507 61.9327 121.563 61.6247 121.619C61.3214 121.67 61.0507 121.733 60.8127 121.808C60.6121 121.878 60.4324 121.962 60.2737 122.06C60.1197 122.158 59.9961 122.277 59.9027 122.417C59.8141 122.557 59.7697 122.727 59.7697 122.928C59.7697 123.124 59.8187 123.306 59.9167 123.474C60.0147 123.637 60.1641 123.768 60.3647 123.866C60.5654 123.964 60.8221 124.013 61.1347 124.013ZM69.9454 125.21C69.1708 125.21 68.5128 125.037 67.9714 124.692C67.4301 124.347 67.0148 123.873 66.7254 123.271C66.4408 122.669 66.2961 121.985 66.2914 121.22C66.2961 120.441 66.4454 119.752 66.7394 119.155C67.0334 118.553 67.4534 118.082 67.9994 117.741C68.5454 117.4 69.2011 117.23 69.9664 117.23C70.7924 117.23 71.4971 117.435 72.0804 117.846C72.6684 118.257 73.0558 118.819 73.2424 119.533L71.7864 119.953C71.6418 119.528 71.4038 119.199 71.0724 118.966C70.7458 118.728 70.3701 118.609 69.9454 118.609C69.4648 118.609 69.0704 118.723 68.7624 118.952C68.4544 119.176 68.2258 119.484 68.0764 119.876C67.9271 120.268 67.8501 120.716 67.8454 121.22C67.8501 121.999 68.0274 122.629 68.3774 123.11C68.7321 123.591 69.2548 123.831 69.9454 123.831C70.4168 123.831 70.7971 123.724 71.0864 123.509C71.3804 123.29 71.6044 122.977 71.7584 122.571L73.2424 122.921C72.9951 123.658 72.5868 124.225 72.0174 124.622C71.4481 125.014 70.7574 125.21 69.9454 125.21ZM78.9945 125C78.5185 125.093 78.0518 125.133 77.5945 125.119C77.1371 125.105 76.7288 125.016 76.3695 124.853C76.0101 124.69 75.7395 124.433 75.5575 124.083C75.3941 123.77 75.3055 123.453 75.2915 123.131C75.2821 122.804 75.2775 122.436 75.2775 122.025V115.34H76.7475V121.955C76.7475 122.258 76.7498 122.522 76.7545 122.746C76.7638 122.97 76.8128 123.159 76.9015 123.313C77.0695 123.602 77.3355 123.768 77.6995 123.81C78.0681 123.847 78.4998 123.831 78.9945 123.761V125ZM73.8285 118.616V117.44H78.9945V118.616H73.8285ZM86.2401 125.203C85.7175 125.203 85.2788 125.119 84.9241 124.951C84.5695 124.783 84.2801 124.564 84.0561 124.293C83.8368 124.018 83.6688 123.719 83.5521 123.397C83.4355 123.075 83.3561 122.76 83.3141 122.452C83.2721 122.144 83.2511 121.873 83.2511 121.64V117.44H84.7351V121.157C84.7351 121.451 84.7585 121.754 84.8051 122.067C84.8565 122.375 84.9498 122.662 85.0851 122.928C85.2251 123.194 85.4188 123.409 85.6661 123.572C85.9181 123.735 86.2448 123.817 86.6461 123.817C86.9075 123.817 87.1548 123.775 87.3881 123.691C87.6215 123.602 87.8245 123.462 87.9971 123.271C88.1745 123.08 88.3121 122.828 88.4101 122.515C88.5128 122.202 88.5641 121.822 88.5641 121.374L89.4741 121.717C89.4741 122.403 89.3458 123.01 89.0891 123.537C88.8325 124.06 88.4638 124.468 87.9831 124.762C87.5025 125.056 86.9215 125.203 86.2401 125.203ZM88.7391 125V122.816H88.5641V117.44H90.0411V125H88.7391ZM94.8954 125.203C93.9761 125.203 93.2271 125 92.6484 124.594C92.0697 124.188 91.7151 123.616 91.5844 122.879L93.0824 122.648C93.1757 123.04 93.3904 123.35 93.7264 123.579C94.0671 123.803 94.4894 123.915 94.9934 123.915C95.4507 123.915 95.8077 123.822 96.0644 123.635C96.3257 123.448 96.4564 123.192 96.4564 122.865C96.4564 122.674 96.4097 122.52 96.3164 122.403C96.2277 122.282 96.0387 122.167 95.7494 122.06C95.4601 121.953 95.0191 121.82 94.4264 121.661C93.7777 121.493 93.2621 121.313 92.8794 121.122C92.5014 120.926 92.2307 120.7 92.0674 120.443C91.9087 120.182 91.8294 119.867 91.8294 119.498C91.8294 119.041 91.9507 118.642 92.1934 118.301C92.4361 117.96 92.7767 117.697 93.2154 117.51C93.6587 117.323 94.1767 117.23 94.7694 117.23C95.3481 117.23 95.8637 117.321 96.3164 117.503C96.7691 117.685 97.1354 117.944 97.4154 118.28C97.6954 118.611 97.8634 119.001 97.9194 119.449L96.4214 119.722C96.3701 119.358 96.1997 119.071 95.9104 118.861C95.6211 118.651 95.2454 118.537 94.7834 118.518C94.3401 118.499 93.9807 118.574 93.7054 118.742C93.4301 118.905 93.2924 119.132 93.2924 119.421C93.2924 119.589 93.3437 119.731 93.4464 119.848C93.5537 119.965 93.7591 120.077 94.0624 120.184C94.3657 120.291 94.8137 120.42 95.4064 120.569C96.0411 120.732 96.5451 120.914 96.9184 121.115C97.2917 121.311 97.5577 121.547 97.7164 121.822C97.8797 122.093 97.9614 122.422 97.9614 122.809C97.9614 123.556 97.6884 124.141 97.1424 124.566C96.6011 124.991 95.8521 125.203 94.8954 125.203Z" fill="#22C55E"/>
<path d="M116.411 124.411L117.589 125.589L123.178 120L117.589 114.411L116.411 115.589L119.988 119.167H112V120.833H119.988L116.411 124.411Z" fill="#22C55E"/>
</svg>
