<svg width="196" height="166" viewBox="0 0 196 166" fill="none" xmlns="http://www.w3.org/2000/svg">
<rect x="0.5" y="0.5" width="195" height="165" rx="7.5" stroke="#E2E5F1"/>
<g clip-path="url(#clip0_4633_10428)">
<path d="M45.2871 42.5226C44.3724 41.6194 43.2304 41.6194 42.3214 42.5226C41.6281 43.2101 40.9347 43.8976 40.253 44.5968C40.0666 44.7891 39.9092 44.8299 39.682 44.7017C39.2334 44.457 38.7556 44.2589 38.3244 43.9908C36.3143 42.7265 34.6304 41.1009 33.1388 39.2714C32.3988 38.3624 31.7404 37.3894 31.2802 36.294C31.1869 36.0726 31.2044 35.9269 31.385 35.7463C32.0784 35.0763 32.7543 34.3887 33.436 33.7012C34.3857 32.7456 34.3857 31.6269 33.4301 30.6656C32.8883 30.1179 32.3464 29.5818 31.8045 29.0341C31.2452 28.4748 30.6917 27.9096 30.1265 27.3561C29.2117 26.4646 28.0697 26.4646 27.1608 27.3619C26.4616 28.0495 25.7916 28.7545 25.0807 29.4303C24.4223 30.0538 24.0902 30.8171 24.0203 31.7085C23.9096 33.1593 24.265 34.5286 24.7661 35.8628C25.7916 38.6246 27.3531 41.0776 29.2467 43.3266C31.8045 46.3681 34.8576 48.7744 38.4293 50.5107C40.0374 51.2915 41.7038 51.8916 43.5159 51.9907C44.7627 52.0606 45.8465 51.746 46.7146 50.7729C47.3089 50.1087 47.979 49.5027 48.6083 48.8676C49.5405 47.9237 49.5463 46.7818 48.6199 45.8495C47.5129 44.7366 46.4 43.6296 45.2871 42.5226Z" fill="#6366F1"/>
<path d="M44.1744 37.8788L46.3243 37.5118C45.9864 35.5366 45.0542 33.7478 43.6383 32.3261C42.1409 30.8287 40.2473 29.8848 38.1614 29.5935L37.8584 31.7551C39.4723 31.9824 40.9406 32.7107 42.1001 33.8702C43.1955 34.9656 43.9122 36.3523 44.1744 37.8788Z" fill="#6366F1"/>
<path d="M47.5359 28.533C45.0538 26.0509 41.9133 24.4836 38.4465 24L38.1436 26.1616C41.1384 26.5812 43.8536 27.9387 45.9977 30.0771C48.0312 32.1105 49.3655 34.68 49.8491 37.5059L51.999 37.1388C51.4339 33.8643 49.8898 30.8928 47.5359 28.533Z" fill="#6366F1"/>
</g>
<path d="M28.48 84.21C27.7753 84.21 27.1407 84.0933 26.576 83.86C26.016 83.622 25.5517 83.286 25.183 82.852C24.819 82.418 24.581 81.9023 24.469 81.305L25.519 81.13C25.687 81.7833 26.0417 82.2967 26.583 82.67C27.1243 83.0387 27.7707 83.223 28.522 83.223C29.0167 83.223 29.46 83.146 29.852 82.992C30.244 82.8333 30.552 82.6093 30.776 82.32C31 82.0307 31.112 81.6877 31.112 81.291C31.112 81.0297 31.0653 80.808 30.972 80.626C30.8787 80.4393 30.755 80.2853 30.601 80.164C30.447 80.0427 30.279 79.9423 30.097 79.863C29.915 79.779 29.7377 79.7113 29.565 79.66L27.01 78.897C26.702 78.8083 26.4173 78.6963 26.156 78.561C25.8947 78.421 25.666 78.2553 25.47 78.064C25.2787 77.868 25.1293 77.6393 25.022 77.378C24.9147 77.1167 24.861 76.818 24.861 76.482C24.861 75.9127 25.0103 75.4203 25.309 75.005C25.6077 74.5897 26.016 74.27 26.534 74.046C27.052 73.822 27.6423 73.7123 28.305 73.717C28.977 73.717 29.5767 73.836 30.104 74.074C30.636 74.312 31.0747 74.6527 31.42 75.096C31.7653 75.5347 31.994 76.055 32.106 76.657L31.028 76.853C30.958 76.4143 30.797 76.034 30.545 75.712C30.293 75.39 29.971 75.1427 29.579 74.97C29.1917 74.7927 28.7647 74.7017 28.298 74.697C27.8453 74.697 27.4417 74.774 27.087 74.928C26.737 75.0773 26.4593 75.2827 26.254 75.544C26.0487 75.8053 25.946 76.104 25.946 76.44C25.946 76.7807 26.0393 77.0537 26.226 77.259C26.4173 77.4643 26.6507 77.6253 26.926 77.742C27.206 77.8587 27.4767 77.9543 27.738 78.029L29.712 78.61C29.9173 78.666 30.1577 78.7477 30.433 78.855C30.713 78.9577 30.9837 79.107 31.245 79.303C31.511 79.4943 31.7303 79.7463 31.903 80.059C32.0757 80.3717 32.162 80.7683 32.162 81.249C32.162 81.7157 32.0687 82.1333 31.882 82.502C31.7 82.8707 31.441 83.181 31.105 83.433C30.7737 83.685 30.384 83.8763 29.936 84.007C29.4927 84.1423 29.0073 84.21 28.48 84.21ZM37.723 84C37.2983 84.0887 36.8783 84.1237 36.463 84.105C36.0523 84.0863 35.6836 83.9977 35.357 83.839C35.035 83.6803 34.79 83.433 34.622 83.097C34.4866 82.817 34.412 82.5347 34.398 82.25C34.3886 81.9607 34.384 81.6317 34.384 81.263V74.34H35.406V81.221C35.406 81.5383 35.4083 81.8043 35.413 82.019C35.4223 82.229 35.4713 82.4157 35.56 82.579C35.728 82.8917 35.994 83.0783 36.358 83.139C36.7266 83.1997 37.1816 83.1857 37.723 83.097V84ZM32.767 77.322V76.44H37.723V77.322H32.767ZM39.3524 75.005V73.85H40.3814V75.005H39.3524ZM39.3524 84V76.44H40.3814V84H39.3524ZM42.62 84V73.71H43.649V84H42.62ZM45.8876 84V73.71H46.9166V84H45.8876ZM57.2779 84V80.143C57.2779 79.723 57.2382 79.338 57.1589 78.988C57.0796 78.6333 56.9512 78.3253 56.7739 78.064C56.6012 77.798 56.3749 77.5927 56.0949 77.448C55.8196 77.3033 55.4836 77.231 55.0869 77.231C54.7229 77.231 54.4009 77.294 54.1209 77.42C53.8456 77.546 53.6122 77.728 53.4209 77.966C53.2342 78.1993 53.0919 78.484 52.9939 78.82C52.8959 79.156 52.8469 79.5387 52.8469 79.968L52.1189 79.807C52.1189 79.0323 52.2542 78.3813 52.5249 77.854C52.7956 77.3267 53.1689 76.9277 53.6449 76.657C54.1209 76.3863 54.6669 76.251 55.2829 76.251C55.7356 76.251 56.1299 76.321 56.4659 76.461C56.8066 76.601 57.0936 76.79 57.3269 77.028C57.5649 77.266 57.7562 77.539 57.9009 77.847C58.0456 78.1503 58.1506 78.4747 58.2159 78.82C58.2812 79.1607 58.3139 79.5013 58.3139 79.842V84H57.2779ZM51.8109 84V73.92H52.7419V79.611H52.8469V84H51.8109ZM62.2934 84.21C61.7241 84.21 61.2457 84.1073 60.8584 83.902C60.4757 83.6967 60.1887 83.4237 59.9974 83.083C59.8061 82.7423 59.7104 82.3713 59.7104 81.97C59.7104 81.5593 59.7921 81.2093 59.9554 80.92C60.1234 80.626 60.3497 80.3857 60.6344 80.199C60.9237 80.0123 61.2574 79.87 61.6354 79.772C62.0181 79.6787 62.4404 79.597 62.9024 79.527C63.3691 79.4523 63.8241 79.3893 64.2674 79.338C64.7154 79.282 65.1074 79.2283 65.4434 79.177L65.0794 79.401C65.0934 78.6543 64.9487 78.1013 64.6454 77.742C64.3421 77.3827 63.8147 77.203 63.0634 77.203C62.5454 77.203 62.1067 77.3197 61.7474 77.553C61.3927 77.7863 61.1431 78.155 60.9984 78.659L59.9974 78.365C60.1701 77.6883 60.5177 77.1633 61.0404 76.79C61.5631 76.4167 62.2421 76.23 63.0774 76.23C63.7681 76.23 64.3537 76.3607 64.8344 76.622C65.3197 76.8787 65.6627 77.252 65.8634 77.742C65.9567 77.9613 66.0174 78.2063 66.0454 78.477C66.0734 78.7477 66.0874 79.023 66.0874 79.303V84H65.1704V82.103L65.4364 82.215C65.1797 82.8637 64.7807 83.3583 64.2394 83.699C63.6981 84.0397 63.0494 84.21 62.2934 84.21ZM62.4124 83.321C62.8931 83.321 63.3131 83.2347 63.6724 83.062C64.0317 82.8893 64.3211 82.6537 64.5404 82.355C64.7597 82.0517 64.9021 81.711 64.9674 81.333C65.0234 81.0903 65.0537 80.8243 65.0584 80.535C65.0631 80.241 65.0654 80.0217 65.0654 79.877L65.4574 80.08C65.1074 80.1267 64.7271 80.1733 64.3164 80.22C63.9104 80.2667 63.5091 80.3203 63.1124 80.381C62.7204 80.4417 62.3657 80.514 62.0484 80.598C61.8337 80.6587 61.6261 80.745 61.4254 80.857C61.2247 80.9643 61.0591 81.109 60.9284 81.291C60.8024 81.473 60.7394 81.6993 60.7394 81.97C60.7394 82.1893 60.7931 82.4017 60.9004 82.607C61.0124 82.8123 61.1897 82.9827 61.4324 83.118C61.6797 83.2533 62.0064 83.321 62.4124 83.321ZM69.6803 84L66.9363 76.44H67.9793L70.2123 82.656L72.4313 76.44H73.4883L70.7443 84H69.6803ZM77.6712 84.21C76.9339 84.21 76.2945 84.0467 75.7532 83.72C75.2165 83.3933 74.7989 82.9337 74.5002 82.341C74.2015 81.7483 74.0522 81.053 74.0522 80.255C74.0522 79.429 74.1992 78.715 74.4932 78.113C74.7872 77.511 75.2002 77.0467 75.7322 76.72C76.2689 76.3933 76.9012 76.23 77.6292 76.23C78.3759 76.23 79.0129 76.4027 79.5402 76.748C80.0675 77.0887 80.4665 77.5787 80.7372 78.218C81.0079 78.8573 81.1315 79.6203 81.1082 80.507H80.0582V80.143C80.0395 79.163 79.8272 78.4233 79.4212 77.924C79.0199 77.4247 78.4319 77.175 77.6572 77.175C76.8452 77.175 76.2222 77.4387 75.7882 77.966C75.3589 78.4933 75.1442 79.2447 75.1442 80.22C75.1442 81.172 75.3589 81.9117 75.7882 82.439C76.2222 82.9617 76.8359 83.223 77.6292 83.223C78.1705 83.223 78.6419 83.0993 79.0432 82.852C79.4492 82.6 79.7689 82.2383 80.0022 81.767L80.9612 82.138C80.6625 82.796 80.2215 83.307 79.6382 83.671C79.0595 84.0303 78.4039 84.21 77.6712 84.21ZM74.7802 80.507V79.646H80.5552V80.507H74.7802ZM91.2001 84.21C90.4954 84.21 89.8934 84.035 89.3941 83.685C88.8948 83.3303 88.5121 82.852 88.2461 82.25C87.9801 81.648 87.8471 80.969 87.8471 80.213C87.8471 79.4617 87.9778 78.785 88.2391 78.183C88.5051 77.581 88.8854 77.105 89.3801 76.755C89.8748 76.405 90.4674 76.23 91.1581 76.23C91.8674 76.23 92.4648 76.4027 92.9501 76.748C93.4354 77.0933 93.8018 77.567 94.0491 78.169C94.3011 78.7663 94.4271 79.4477 94.4271 80.213C94.4271 80.9643 94.3034 81.6433 94.0561 82.25C93.8088 82.852 93.4448 83.3303 92.9641 83.685C92.4834 84.035 91.8954 84.21 91.2001 84.21ZM91.3051 83.251C91.8418 83.251 92.2851 83.1203 92.6351 82.859C92.9851 82.5977 93.2464 82.2383 93.4191 81.781C93.5918 81.319 93.6781 80.7963 93.6781 80.213C93.6781 79.6203 93.5918 79.0977 93.4191 78.645C93.2464 78.1877 92.9851 77.8307 92.6351 77.574C92.2898 77.3173 91.8534 77.189 91.3261 77.189C90.7848 77.189 90.3368 77.322 89.9821 77.588C89.6274 77.854 89.3638 78.2157 89.1911 78.673C89.0231 79.1303 88.9391 79.6437 88.9391 80.213C88.9391 80.787 89.0254 81.305 89.1981 81.767C89.3754 82.2243 89.6391 82.586 89.9891 82.852C90.3391 83.118 90.7778 83.251 91.3051 83.251ZM93.5661 87.36V82.131H93.6781V76.44H94.6021V87.36H93.5661ZM99.4569 84.189C99.0043 84.189 98.6076 84.119 98.2669 83.979C97.9309 83.839 97.6439 83.65 97.4059 83.412C97.1726 83.174 96.9836 82.9033 96.8389 82.6C96.6943 82.292 96.5893 81.9677 96.5239 81.627C96.4586 81.2817 96.4259 80.9387 96.4259 80.598V76.44H97.4619V80.297C97.4619 80.7123 97.5016 81.0973 97.5809 81.452C97.6603 81.8067 97.7863 82.117 97.9589 82.383C98.1363 82.6443 98.3626 82.8473 98.6379 82.992C98.9179 83.1367 99.2563 83.209 99.6529 83.209C100.017 83.209 100.337 83.146 100.612 83.02C100.892 82.894 101.125 82.7143 101.312 82.481C101.503 82.243 101.648 81.956 101.746 81.62C101.844 81.2793 101.893 80.8967 101.893 80.472L102.621 80.633C102.621 81.4077 102.486 82.0587 102.215 82.586C101.944 83.1133 101.571 83.5123 101.095 83.783C100.619 84.0537 100.073 84.189 99.4569 84.189ZM101.998 84V82.138H101.893V76.44H102.922V84H101.998ZM108.077 84.21C107.34 84.21 106.701 84.0467 106.159 83.72C105.623 83.3933 105.205 82.9337 104.906 82.341C104.608 81.7483 104.458 81.053 104.458 80.255C104.458 79.429 104.605 78.715 104.899 78.113C105.193 77.511 105.606 77.0467 106.138 76.72C106.675 76.3933 107.307 76.23 108.035 76.23C108.782 76.23 109.419 76.4027 109.946 76.748C110.474 77.0887 110.873 77.5787 111.143 78.218C111.414 78.8573 111.538 79.6203 111.514 80.507H110.464V80.143C110.446 79.163 110.233 78.4233 109.827 77.924C109.426 77.4247 108.838 77.175 108.063 77.175C107.251 77.175 106.628 77.4387 106.194 77.966C105.765 78.4933 105.55 79.2447 105.55 80.22C105.55 81.172 105.765 81.9117 106.194 82.439C106.628 82.9617 107.242 83.223 108.035 83.223C108.577 83.223 109.048 83.0993 109.449 82.852C109.855 82.6 110.175 82.2383 110.408 81.767L111.367 82.138C111.069 82.796 110.628 83.307 110.044 83.671C109.466 84.0303 108.81 84.21 108.077 84.21ZM105.186 80.507V79.646H110.961V80.507H105.186ZM115.889 84.203C115.002 84.203 114.272 84.0117 113.698 83.629C113.129 83.2463 112.779 82.7143 112.648 82.033L113.698 81.858C113.81 82.2873 114.064 82.6303 114.461 82.887C114.862 83.139 115.357 83.265 115.945 83.265C116.519 83.265 116.972 83.146 117.303 82.908C117.634 82.6653 117.8 82.3363 117.8 81.921C117.8 81.6877 117.746 81.4987 117.639 81.354C117.536 81.2047 117.324 81.067 117.002 80.941C116.68 80.815 116.199 80.6657 115.56 80.493C114.874 80.3063 114.337 80.1197 113.95 79.933C113.563 79.7463 113.287 79.5317 113.124 79.289C112.961 79.0417 112.879 78.7407 112.879 78.386C112.879 77.9567 113 77.581 113.243 77.259C113.486 76.9323 113.822 76.6803 114.251 76.503C114.68 76.321 115.18 76.23 115.749 76.23C116.318 76.23 116.827 76.3233 117.275 76.51C117.728 76.692 118.092 76.9487 118.367 77.28C118.642 77.6113 118.806 77.9963 118.857 78.435L117.807 78.624C117.737 78.1807 117.515 77.8307 117.142 77.574C116.773 77.3127 116.304 77.1773 115.735 77.168C115.198 77.154 114.762 77.2567 114.426 77.476C114.09 77.6907 113.922 77.9777 113.922 78.337C113.922 78.5377 113.983 78.7103 114.104 78.855C114.225 78.995 114.445 79.128 114.762 79.254C115.084 79.38 115.541 79.5177 116.134 79.667C116.829 79.8443 117.375 80.031 117.772 80.227C118.169 80.423 118.451 80.654 118.619 80.92C118.787 81.186 118.871 81.515 118.871 81.907C118.871 82.621 118.605 83.1833 118.073 83.594C117.546 84 116.818 84.203 115.889 84.203ZM124.539 84C124.115 84.0887 123.695 84.1237 123.279 84.105C122.869 84.0863 122.5 83.9977 122.173 83.839C121.851 83.6803 121.606 83.433 121.438 83.097C121.303 82.817 121.228 82.5347 121.214 82.25C121.205 81.9607 121.2 81.6317 121.2 81.263V74.34H122.222V81.221C122.222 81.5383 122.225 81.8043 122.229 82.019C122.239 82.229 122.288 82.4157 122.376 82.579C122.544 82.8917 122.81 83.0783 123.174 83.139C123.543 83.1997 123.998 83.1857 124.539 83.097V84ZM119.583 77.322V76.44H124.539V77.322H119.583ZM126.169 75.005V73.85H127.198V75.005H126.169ZM126.169 84V76.44H127.198V84H126.169ZM132.453 84.21C131.702 84.21 131.06 84.0397 130.528 83.699C129.996 83.3583 129.588 82.887 129.303 82.285C129.019 81.683 128.876 80.9923 128.876 80.213C128.876 79.4197 129.021 78.7243 129.31 78.127C129.6 77.5297 130.01 77.0653 130.542 76.734C131.079 76.398 131.716 76.23 132.453 76.23C133.209 76.23 133.853 76.4003 134.385 76.741C134.922 77.077 135.33 77.546 135.61 78.148C135.895 78.7453 136.037 79.4337 136.037 80.213C136.037 81.0063 135.895 81.704 135.61 82.306C135.326 82.9033 134.915 83.37 134.378 83.706C133.842 84.042 133.2 84.21 132.453 84.21ZM132.453 83.223C133.293 83.223 133.919 82.9453 134.329 82.39C134.74 81.83 134.945 81.1043 134.945 80.213C134.945 79.2983 134.738 78.5703 134.322 78.029C133.912 77.4877 133.289 77.217 132.453 77.217C131.889 77.217 131.422 77.3453 131.053 77.602C130.689 77.854 130.416 78.2063 130.234 78.659C130.057 79.107 129.968 79.625 129.968 80.213C129.968 81.123 130.178 81.8533 130.598 82.404C131.018 82.95 131.637 83.223 132.453 83.223ZM143.042 84V80.143C143.042 79.723 143.002 79.338 142.923 78.988C142.843 78.6333 142.715 78.3253 142.538 78.064C142.365 77.798 142.139 77.5927 141.859 77.448C141.583 77.3033 141.247 77.231 140.851 77.231C140.487 77.231 140.165 77.294 139.885 77.42C139.609 77.546 139.376 77.728 139.185 77.966C138.998 78.1993 138.856 78.484 138.758 78.82C138.66 79.156 138.611 79.5387 138.611 79.968L137.883 79.807C137.883 79.0323 138.018 78.3813 138.289 77.854C138.559 77.3267 138.933 76.9277 139.409 76.657C139.885 76.3863 140.431 76.251 141.047 76.251C141.499 76.251 141.894 76.321 142.23 76.461C142.57 76.601 142.857 76.79 143.091 77.028C143.329 77.266 143.52 77.539 143.665 77.847C143.809 78.1503 143.914 78.4747 143.98 78.82C144.045 79.1607 144.078 79.5013 144.078 79.842V84H143.042ZM137.575 84V76.44H138.506V78.302H138.611V84H137.575ZM148.715 84.203C147.828 84.203 147.098 84.0117 146.524 83.629C145.955 83.2463 145.605 82.7143 145.474 82.033L146.524 81.858C146.636 82.2873 146.89 82.6303 147.287 82.887C147.688 83.139 148.183 83.265 148.771 83.265C149.345 83.265 149.798 83.146 150.129 82.908C150.46 82.6653 150.626 82.3363 150.626 81.921C150.626 81.6877 150.572 81.4987 150.465 81.354C150.362 81.2047 150.15 81.067 149.828 80.941C149.506 80.815 149.025 80.6657 148.386 80.493C147.7 80.3063 147.163 80.1197 146.776 79.933C146.389 79.7463 146.113 79.5317 145.95 79.289C145.787 79.0417 145.705 78.7407 145.705 78.386C145.705 77.9567 145.826 77.581 146.069 77.259C146.312 76.9323 146.648 76.6803 147.077 76.503C147.506 76.321 148.006 76.23 148.575 76.23C149.144 76.23 149.653 76.3233 150.101 76.51C150.554 76.692 150.918 76.9487 151.193 77.28C151.468 77.6113 151.632 77.9963 151.683 78.435L150.633 78.624C150.563 78.1807 150.341 77.8307 149.968 77.574C149.599 77.3127 149.13 77.1773 148.561 77.168C148.024 77.154 147.588 77.2567 147.252 77.476C146.916 77.6907 146.748 77.9777 146.748 78.337C146.748 78.5377 146.809 78.7103 146.93 78.855C147.051 78.995 147.271 79.128 147.588 79.254C147.91 79.38 148.367 79.5177 148.96 79.667C149.655 79.8443 150.201 80.031 150.598 80.227C150.995 80.423 151.277 80.654 151.445 80.92C151.613 81.186 151.697 81.515 151.697 81.907C151.697 82.621 151.431 83.1833 150.899 83.594C150.372 84 149.644 84.203 148.715 84.203ZM155.224 81.249C155.224 80.885 155.24 80.5653 155.273 80.29C155.31 80.01 155.403 79.73 155.553 79.45C155.693 79.184 155.865 78.9647 156.071 78.792C156.276 78.6147 156.491 78.449 156.715 78.295C156.939 78.1363 157.151 77.9497 157.352 77.735C157.534 77.525 157.655 77.3127 157.716 77.098C157.776 76.8833 157.807 76.657 157.807 76.419C157.807 76.181 157.776 75.9687 157.716 75.782C157.66 75.5953 157.571 75.4343 157.45 75.299C157.263 75.0703 157.034 74.914 156.764 74.83C156.493 74.746 156.211 74.704 155.917 74.704C155.627 74.704 155.357 74.746 155.105 74.83C154.857 74.9093 154.652 75.033 154.489 75.201C154.33 75.3503 154.213 75.53 154.139 75.74C154.069 75.95 154.034 76.1717 154.034 76.405H152.97C152.988 76.0363 153.068 75.677 153.208 75.327C153.352 74.9723 153.562 74.676 153.838 74.438C154.113 74.186 154.433 74.004 154.797 73.892C155.165 73.7753 155.536 73.717 155.91 73.717C156.367 73.717 156.801 73.787 157.212 73.927C157.622 74.0623 157.968 74.291 158.248 74.613C158.472 74.851 158.635 75.124 158.738 75.432C158.845 75.7353 158.899 76.0597 158.899 76.405C158.899 76.7923 158.826 77.1563 158.682 77.497C158.537 77.8377 158.334 78.141 158.073 78.407C157.914 78.5797 157.734 78.7407 157.534 78.89C157.333 79.0347 157.139 79.1863 156.953 79.345C156.771 79.499 156.631 79.667 156.533 79.849C156.411 80.073 156.344 80.2853 156.33 80.486C156.32 80.6867 156.316 80.941 156.316 81.249H155.224ZM155.231 84V82.628H156.316V84H155.231Z" fill="#565973"/>
<path d="M29.6567 125.21C28.6487 125.21 27.7901 124.991 27.0807 124.552C26.3714 124.109 25.8277 123.493 25.4497 122.704C25.0764 121.915 24.8897 121.001 24.8897 119.96C24.8897 118.919 25.0764 118.005 25.4497 117.216C25.8277 116.427 26.3714 115.814 27.0807 115.375C27.7901 114.932 28.6487 114.71 29.6567 114.71C30.8187 114.71 31.7801 115.004 32.5407 115.592C33.3061 116.18 33.8381 116.971 34.1367 117.965L32.6527 118.364C32.4567 117.659 32.1067 117.106 31.6027 116.705C31.1034 116.304 30.4547 116.103 29.6567 116.103C28.9427 116.103 28.3477 116.264 27.8717 116.586C27.3957 116.908 27.0364 117.358 26.7937 117.937C26.5557 118.516 26.4367 119.19 26.4367 119.96C26.4321 120.73 26.5487 121.404 26.7867 121.983C27.0294 122.562 27.3887 123.012 27.8647 123.334C28.3454 123.656 28.9427 123.817 29.6567 123.817C30.4547 123.817 31.1034 123.616 31.6027 123.215C32.1067 122.809 32.4567 122.256 32.6527 121.556L34.1367 121.955C33.8381 122.949 33.3061 123.74 32.5407 124.328C31.7801 124.916 30.8187 125.21 29.6567 125.21ZM38.9593 125.21C38.2033 125.21 37.5476 125.04 36.9923 124.699C36.437 124.358 36.0076 123.889 35.7043 123.292C35.4056 122.69 35.2563 121.997 35.2563 121.213C35.2563 120.424 35.4103 119.731 35.7183 119.134C36.0263 118.532 36.458 118.065 37.0133 117.734C37.5686 117.398 38.2173 117.23 38.9593 117.23C39.7153 117.23 40.371 117.4 40.9263 117.741C41.4816 118.082 41.911 118.551 42.2143 119.148C42.5176 119.745 42.6693 120.434 42.6693 121.213C42.6693 122.002 42.5153 122.697 42.2073 123.299C41.904 123.896 41.4746 124.365 40.9193 124.706C40.364 125.042 39.7106 125.21 38.9593 125.21ZM38.9593 123.831C39.6826 123.831 40.2216 123.588 40.5763 123.103C40.9356 122.613 41.1153 121.983 41.1153 121.213C41.1153 120.424 40.9333 119.794 40.5693 119.323C40.21 118.847 39.6733 118.609 38.9593 118.609C38.4693 118.609 38.0656 118.721 37.7483 118.945C37.431 119.164 37.1953 119.47 37.0413 119.862C36.8873 120.249 36.8103 120.7 36.8103 121.213C36.8103 122.006 36.9923 122.641 37.3563 123.117C37.7203 123.593 38.2546 123.831 38.9593 123.831ZM49.5135 125V121.283C49.5135 120.989 49.4879 120.688 49.4365 120.38C49.3899 120.067 49.2965 119.778 49.1565 119.512C49.0212 119.246 48.8275 119.031 48.5755 118.868C48.3282 118.705 48.0039 118.623 47.6025 118.623C47.3412 118.623 47.0939 118.667 46.8605 118.756C46.6272 118.84 46.4219 118.978 46.2445 119.169C46.0719 119.36 45.9342 119.612 45.8315 119.925C45.7335 120.238 45.6845 120.618 45.6845 121.066L44.7745 120.723C44.7745 120.037 44.9029 119.433 45.1595 118.91C45.4162 118.383 45.7849 117.972 46.2655 117.678C46.7462 117.384 47.3272 117.237 48.0085 117.237C48.5312 117.237 48.9699 117.321 49.3245 117.489C49.6792 117.657 49.9662 117.879 50.1855 118.154C50.4095 118.425 50.5799 118.721 50.6965 119.043C50.8132 119.365 50.8925 119.68 50.9345 119.988C50.9765 120.296 50.9975 120.567 50.9975 120.8V125H49.5135ZM44.2005 125V117.44H45.5095V119.624H45.6845V125H44.2005ZM57.1468 125C56.6708 125.093 56.2042 125.133 55.7468 125.119C55.2895 125.105 54.8812 125.016 54.5218 124.853C54.1625 124.69 53.8918 124.433 53.7098 124.083C53.5465 123.77 53.4578 123.453 53.4438 123.131C53.4345 122.804 53.4298 122.436 53.4298 122.025V115.34H54.8998V121.955C54.8998 122.258 54.9022 122.522 54.9068 122.746C54.9162 122.97 54.9652 123.159 55.0538 123.313C55.2218 123.602 55.4878 123.768 55.8518 123.81C56.2205 123.847 56.6522 123.831 57.1468 123.761V125ZM51.9808 118.616V117.44H57.1468V118.616H51.9808ZM60.8757 125.21C60.3157 125.21 59.8467 125.107 59.4687 124.902C59.0907 124.692 58.8037 124.417 58.6077 124.076C58.4164 123.731 58.3207 123.353 58.3207 122.942C58.3207 122.559 58.3884 122.223 58.5237 121.934C58.6591 121.645 58.8597 121.4 59.1257 121.199C59.3917 120.994 59.7184 120.828 60.1057 120.702C60.4417 120.604 60.8221 120.518 61.2467 120.443C61.6714 120.368 62.1171 120.298 62.5837 120.233C63.0551 120.168 63.5217 120.102 63.9837 120.037L63.4517 120.331C63.4611 119.738 63.3351 119.3 63.0737 119.015C62.8171 118.726 62.3737 118.581 61.7437 118.581C61.3471 118.581 60.9831 118.674 60.6517 118.861C60.3204 119.043 60.0894 119.346 59.9587 119.771L58.5937 119.351C58.7804 118.702 59.1351 118.187 59.6577 117.804C60.1851 117.421 60.8851 117.23 61.7577 117.23C62.4344 117.23 63.0224 117.347 63.5217 117.58C64.0257 117.809 64.3944 118.173 64.6277 118.672C64.7491 118.919 64.8237 119.181 64.8517 119.456C64.8797 119.731 64.8937 120.028 64.8937 120.345V125H63.5987V123.271L63.8507 123.495C63.5381 124.074 63.1391 124.505 62.6537 124.79C62.1731 125.07 61.5804 125.21 60.8757 125.21ZM61.1347 124.013C61.5501 124.013 61.9071 123.941 62.2057 123.796C62.5044 123.647 62.7447 123.458 62.9267 123.229C63.1087 123 63.2277 122.762 63.2837 122.515C63.3631 122.291 63.4074 122.039 63.4167 121.759C63.4307 121.479 63.4377 121.255 63.4377 121.087L63.9137 121.262C63.4517 121.332 63.0317 121.395 62.6537 121.451C62.2757 121.507 61.9327 121.563 61.6247 121.619C61.3214 121.67 61.0507 121.733 60.8127 121.808C60.6121 121.878 60.4324 121.962 60.2737 122.06C60.1197 122.158 59.9961 122.277 59.9027 122.417C59.8141 122.557 59.7697 122.727 59.7697 122.928C59.7697 123.124 59.8187 123.306 59.9167 123.474C60.0147 123.637 60.1641 123.768 60.3647 123.866C60.5654 123.964 60.8221 124.013 61.1347 124.013ZM69.9454 125.21C69.1708 125.21 68.5128 125.037 67.9714 124.692C67.4301 124.347 67.0148 123.873 66.7254 123.271C66.4408 122.669 66.2961 121.985 66.2914 121.22C66.2961 120.441 66.4454 119.752 66.7394 119.155C67.0334 118.553 67.4534 118.082 67.9994 117.741C68.5454 117.4 69.2011 117.23 69.9664 117.23C70.7924 117.23 71.4971 117.435 72.0804 117.846C72.6684 118.257 73.0558 118.819 73.2424 119.533L71.7864 119.953C71.6418 119.528 71.4038 119.199 71.0724 118.966C70.7458 118.728 70.3701 118.609 69.9454 118.609C69.4648 118.609 69.0704 118.723 68.7624 118.952C68.4544 119.176 68.2258 119.484 68.0764 119.876C67.9271 120.268 67.8501 120.716 67.8454 121.22C67.8501 121.999 68.0274 122.629 68.3774 123.11C68.7321 123.591 69.2548 123.831 69.9454 123.831C70.4168 123.831 70.7971 123.724 71.0864 123.509C71.3804 123.29 71.6044 122.977 71.7584 122.571L73.2424 122.921C72.9951 123.658 72.5868 124.225 72.0174 124.622C71.4481 125.014 70.7574 125.21 69.9454 125.21ZM78.9945 125C78.5185 125.093 78.0518 125.133 77.5945 125.119C77.1371 125.105 76.7288 125.016 76.3695 124.853C76.0101 124.69 75.7395 124.433 75.5575 124.083C75.3941 123.77 75.3055 123.453 75.2915 123.131C75.2821 122.804 75.2775 122.436 75.2775 122.025V115.34H76.7475V121.955C76.7475 122.258 76.7498 122.522 76.7545 122.746C76.7638 122.97 76.8128 123.159 76.9015 123.313C77.0695 123.602 77.3355 123.768 77.6995 123.81C78.0681 123.847 78.4998 123.831 78.9945 123.761V125ZM73.8285 118.616V117.44H78.9945V118.616H73.8285ZM86.2401 125.203C85.7175 125.203 85.2788 125.119 84.9241 124.951C84.5695 124.783 84.2801 124.564 84.0561 124.293C83.8368 124.018 83.6688 123.719 83.5521 123.397C83.4355 123.075 83.3561 122.76 83.3141 122.452C83.2721 122.144 83.2511 121.873 83.2511 121.64V117.44H84.7351V121.157C84.7351 121.451 84.7585 121.754 84.8051 122.067C84.8565 122.375 84.9498 122.662 85.0851 122.928C85.2251 123.194 85.4188 123.409 85.6661 123.572C85.9181 123.735 86.2448 123.817 86.6461 123.817C86.9075 123.817 87.1548 123.775 87.3881 123.691C87.6215 123.602 87.8245 123.462 87.9971 123.271C88.1745 123.08 88.3121 122.828 88.4101 122.515C88.5128 122.202 88.5641 121.822 88.5641 121.374L89.4741 121.717C89.4741 122.403 89.3458 123.01 89.0891 123.537C88.8325 124.06 88.4638 124.468 87.9831 124.762C87.5025 125.056 86.9215 125.203 86.2401 125.203ZM88.7391 125V122.816H88.5641V117.44H90.0411V125H88.7391ZM94.8954 125.203C93.9761 125.203 93.2271 125 92.6484 124.594C92.0697 124.188 91.7151 123.616 91.5844 122.879L93.0824 122.648C93.1757 123.04 93.3904 123.35 93.7264 123.579C94.0671 123.803 94.4894 123.915 94.9934 123.915C95.4507 123.915 95.8077 123.822 96.0644 123.635C96.3257 123.448 96.4564 123.192 96.4564 122.865C96.4564 122.674 96.4097 122.52 96.3164 122.403C96.2277 122.282 96.0387 122.167 95.7494 122.06C95.4601 121.953 95.0191 121.82 94.4264 121.661C93.7777 121.493 93.2621 121.313 92.8794 121.122C92.5014 120.926 92.2307 120.7 92.0674 120.443C91.9087 120.182 91.8294 119.867 91.8294 119.498C91.8294 119.041 91.9507 118.642 92.1934 118.301C92.4361 117.96 92.7767 117.697 93.2154 117.51C93.6587 117.323 94.1767 117.23 94.7694 117.23C95.3481 117.23 95.8637 117.321 96.3164 117.503C96.7691 117.685 97.1354 117.944 97.4154 118.28C97.6954 118.611 97.8634 119.001 97.9194 119.449L96.4214 119.722C96.3701 119.358 96.1997 119.071 95.9104 118.861C95.6211 118.651 95.2454 118.537 94.7834 118.518C94.3401 118.499 93.9807 118.574 93.7054 118.742C93.4301 118.905 93.2924 119.132 93.2924 119.421C93.2924 119.589 93.3437 119.731 93.4464 119.848C93.5537 119.965 93.7591 120.077 94.0624 120.184C94.3657 120.291 94.8137 120.42 95.4064 120.569C96.0411 120.732 96.5451 120.914 96.9184 121.115C97.2917 121.311 97.5577 121.547 97.7164 121.822C97.8797 122.093 97.9614 122.422 97.9614 122.809C97.9614 123.556 97.6884 124.141 97.1424 124.566C96.6011 124.991 95.8521 125.203 94.8954 125.203Z" fill="#6366F1"/>
<path d="M116.411 124.411L117.589 125.589L123.178 120L117.589 114.411L116.411 115.589L119.988 119.167H112V120.833H119.988L116.411 124.411Z" fill="#6366F1"/>
<defs>
<clipPath id="clip0_4633_10428">
<rect width="28" height="28" fill="white" transform="translate(24 24)"/>
</clipPath>
</defs>
</svg>
