<svg width="344" height="166" viewBox="0 0 344 166" fill="none" xmlns="http://www.w3.org/2000/svg">
<rect x="0.5" y="0.5" width="343" height="165" rx="7.5" stroke="#E2E5F1"/>
<path d="M38.0547 25C45.7443 25 52 30.5195 52 37.3047C52 40.171 50.8657 42.9483 48.8013 45.1497C48.3927 46.8344 48.8886 48.6192 50.1191 49.8497C50.6336 50.3642 50.2697 51.25 49.5391 51.25C47.2015 51.25 44.948 50.3344 43.2738 48.7194C41.6171 49.3106 39.8644 49.6094 38.0547 49.6094C30.3651 49.6094 24 44.0899 24 37.3047C24 30.5195 30.3651 25 38.0547 25ZM44.5078 39.7656C45.8648 39.7656 46.9688 38.6617 46.9688 37.3047C46.9688 35.9477 45.8648 34.8438 44.5078 34.8438C43.1508 34.8438 42.0469 35.9477 42.0469 37.3047C42.0469 38.6617 43.1508 39.7656 44.5078 39.7656ZM37.9453 39.7656C39.3023 39.7656 40.4062 38.6617 40.4062 37.3047C40.4062 35.9477 39.3023 34.8438 37.9453 34.8438C36.5883 34.8438 35.4844 35.9477 35.4844 37.3047C35.4844 38.6617 36.5883 39.7656 37.9453 39.7656ZM31.3828 39.7656C32.7398 39.7656 33.8438 38.6617 33.8438 37.3047C33.8438 35.9477 32.7398 34.8438 31.3828 34.8438C30.0258 34.8438 28.9219 35.9477 28.9219 37.3047C28.9219 38.6617 30.0258 39.7656 31.3828 39.7656Z" fill="#22C55E"/>
<path d="M24.98 84V73.92H28.039C28.1463 73.92 28.3283 73.9223 28.585 73.927C28.8463 73.9317 29.096 73.9503 29.334 73.983C30.0993 74.0903 30.7387 74.375 31.252 74.837C31.7653 75.299 32.1503 75.887 32.407 76.601C32.6637 77.315 32.792 78.1013 32.792 78.96C32.792 79.8187 32.6637 80.605 32.407 81.319C32.1503 82.033 31.7653 82.621 31.252 83.083C30.7387 83.545 30.0993 83.8297 29.334 83.937C29.1007 83.965 28.851 83.9837 28.585 83.993C28.319 83.9977 28.137 84 28.039 84H24.98ZM26.044 83.013H28.039C28.2303 83.013 28.4357 83.0083 28.655 82.999C28.879 82.985 29.0703 82.9617 29.229 82.929C29.817 82.8263 30.2907 82.5883 30.65 82.215C31.014 81.8417 31.28 81.375 31.448 80.815C31.616 80.2503 31.7 79.632 31.7 78.96C31.7 78.2833 31.616 77.6627 31.448 77.098C31.28 76.5333 31.014 76.0667 30.65 75.698C30.286 75.3293 29.8123 75.0937 29.229 74.991C29.0703 74.9583 28.8767 74.9373 28.648 74.928C28.424 74.914 28.221 74.907 28.039 74.907H26.044V83.013ZM37.5433 84.21C36.7919 84.21 36.1503 84.0397 35.6183 83.699C35.0863 83.3583 34.6779 82.887 34.3933 82.285C34.1086 81.683 33.9663 80.9923 33.9663 80.213C33.9663 79.4197 34.1109 78.7243 34.4003 78.127C34.6896 77.5297 35.1003 77.0653 35.6323 76.734C36.1689 76.398 36.8059 76.23 37.5433 76.23C38.2993 76.23 38.9433 76.4003 39.4753 76.741C40.0119 77.077 40.4203 77.546 40.7003 78.148C40.9849 78.7453 41.1273 79.4337 41.1273 80.213C41.1273 81.0063 40.9849 81.704 40.7003 82.306C40.4156 82.9033 40.0049 83.37 39.4683 83.706C38.9316 84.042 38.2899 84.21 37.5433 84.21ZM37.5433 83.223C38.3833 83.223 39.0086 82.9453 39.4193 82.39C39.8299 81.83 40.0353 81.1043 40.0353 80.213C40.0353 79.2983 39.8276 78.5703 39.4123 78.029C39.0016 77.4877 38.3786 77.217 37.5433 77.217C36.9786 77.217 36.5119 77.3453 36.1433 77.602C35.7793 77.854 35.5063 78.2063 35.3243 78.659C35.1469 79.107 35.0583 79.625 35.0583 80.213C35.0583 81.123 35.2683 81.8533 35.6883 82.404C36.1083 82.95 36.7266 83.223 37.5433 83.223ZM48.1314 84V80.143C48.1314 79.723 48.0917 79.338 48.0124 78.988C47.9331 78.6333 47.8047 78.3253 47.6274 78.064C47.4547 77.798 47.2284 77.5927 46.9484 77.448C46.6731 77.3033 46.3371 77.231 45.9404 77.231C45.5764 77.231 45.2544 77.294 44.9744 77.42C44.6991 77.546 44.4657 77.728 44.2744 77.966C44.0877 78.1993 43.9454 78.484 43.8474 78.82C43.7494 79.156 43.7004 79.5387 43.7004 79.968L42.9724 79.807C42.9724 79.0323 43.1077 78.3813 43.3784 77.854C43.6491 77.3267 44.0224 76.9277 44.4984 76.657C44.9744 76.3863 45.5204 76.251 46.1364 76.251C46.5891 76.251 46.9834 76.321 47.3194 76.461C47.6601 76.601 47.9471 76.79 48.1804 77.028C48.4184 77.266 48.6097 77.539 48.7544 77.847C48.8991 78.1503 49.0041 78.4747 49.0694 78.82C49.1347 79.1607 49.1674 79.5013 49.1674 79.842V84H48.1314ZM42.6644 84V76.44H43.5954V78.302H43.7004V84H42.6644ZM50.4234 76.86L50.4864 76.349C50.673 76.363 50.8084 76.3257 50.8924 76.237C50.9764 76.1483 51.0277 76.0293 51.0464 75.88C51.065 75.7307 51.0697 75.5697 51.0604 75.397H50.4234V73.92H51.6204V75.677C51.6204 76.1063 51.5107 76.4283 51.2914 76.643C51.0767 76.8577 50.7874 76.93 50.4234 76.86ZM57.6429 84C57.2182 84.0887 56.7982 84.1237 56.3829 84.105C55.9722 84.0863 55.6035 83.9977 55.2769 83.839C54.9549 83.6803 54.7099 83.433 54.5419 83.097C54.4065 82.817 54.3319 82.5347 54.3179 82.25C54.3085 81.9607 54.3039 81.6317 54.3039 81.263V74.34H55.3259V81.221C55.3259 81.5383 55.3282 81.8043 55.3329 82.019C55.3422 82.229 55.3912 82.4157 55.4799 82.579C55.6479 82.8917 55.9139 83.0783 56.2779 83.139C56.6465 83.1997 57.1015 83.1857 57.6429 83.097V84ZM52.6869 77.322V76.44H57.6429V77.322H52.6869ZM62.0751 84V73.71H63.1041V84H62.0751ZM65.3427 75.005V73.85H66.3717V75.005H65.3427ZM65.3427 84V76.44H66.3717V84H65.3427ZM68.4632 84L68.4702 73.92H69.5062V80.08L72.8802 76.44H74.2522L70.7102 80.22L74.7142 84H73.2162L69.5062 80.36V84H68.4632ZM78.4778 84.21C77.7405 84.21 77.1012 84.0467 76.5598 83.72C76.0232 83.3933 75.6055 82.9337 75.3068 82.341C75.0082 81.7483 74.8588 81.053 74.8588 80.255C74.8588 79.429 75.0058 78.715 75.2998 78.113C75.5938 77.511 76.0068 77.0467 76.5388 76.72C77.0755 76.3933 77.7078 76.23 78.4358 76.23C79.1825 76.23 79.8195 76.4027 80.3468 76.748C80.8742 77.0887 81.2732 77.5787 81.5438 78.218C81.8145 78.8573 81.9382 79.6203 81.9148 80.507H80.8648V80.143C80.8462 79.163 80.6338 78.4233 80.2278 77.924C79.8265 77.4247 79.2385 77.175 78.4638 77.175C77.6518 77.175 77.0288 77.4387 76.5948 77.966C76.1655 78.4933 75.9508 79.2447 75.9508 80.22C75.9508 81.172 76.1655 81.9117 76.5948 82.439C77.0288 82.9617 77.6425 83.223 78.4358 83.223C78.9772 83.223 79.4485 83.0993 79.8498 82.852C80.2558 82.6 80.5755 82.2383 80.8088 81.767L81.7678 82.138C81.4692 82.796 81.0282 83.307 80.4448 83.671C79.8662 84.0303 79.2105 84.21 78.4778 84.21ZM75.5868 80.507V79.646H81.3618V80.507H75.5868ZM89.666 84.21C88.9707 84.21 88.3827 84.035 87.902 83.685C87.4213 83.3303 87.0573 82.852 86.81 82.25C86.5627 81.6433 86.439 80.9643 86.439 80.213C86.439 79.4477 86.5627 78.7663 86.81 78.169C87.062 77.567 87.4307 77.0933 87.916 76.748C88.4013 76.4027 88.9987 76.23 89.708 76.23C90.3987 76.23 90.9913 76.405 91.486 76.755C91.9807 77.105 92.3587 77.581 92.62 78.183C92.886 78.785 93.019 79.4617 93.019 80.213C93.019 80.969 92.886 81.648 92.62 82.25C92.354 82.852 91.9713 83.3303 91.472 83.685C90.9727 84.035 90.3707 84.21 89.666 84.21ZM86.264 87.36V76.44H87.188V82.131H87.3V87.36H86.264ZM89.561 83.251C90.0883 83.251 90.527 83.118 90.877 82.852C91.227 82.586 91.4883 82.2243 91.661 81.767C91.8383 81.305 91.927 80.787 91.927 80.213C91.927 79.6437 91.8407 79.1303 91.668 78.673C91.4953 78.2157 91.2317 77.854 90.877 77.588C90.527 77.322 90.0813 77.189 89.54 77.189C89.0127 77.189 88.574 77.3173 88.224 77.574C87.8787 77.8307 87.6197 78.1877 87.447 78.645C87.2743 79.0977 87.188 79.6203 87.188 80.213C87.188 80.7963 87.2743 81.319 87.447 81.781C87.6197 82.2383 87.881 82.5977 88.231 82.859C88.581 83.1203 89.0243 83.251 89.561 83.251ZM100.016 84V80.143C100.016 79.723 99.9765 79.338 99.8972 78.988C99.8178 78.6333 99.6895 78.3253 99.5122 78.064C99.3395 77.798 99.1132 77.5927 98.8332 77.448C98.5578 77.3033 98.2218 77.231 97.8252 77.231C97.4612 77.231 97.1392 77.294 96.8592 77.42C96.5838 77.546 96.3505 77.728 96.1592 77.966C95.9725 78.1993 95.8302 78.484 95.7322 78.82C95.6342 79.156 95.5852 79.5387 95.5852 79.968L94.8572 79.807C94.8572 79.0323 94.9925 78.3813 95.2632 77.854C95.5338 77.3267 95.9072 76.9277 96.3832 76.657C96.8592 76.3863 97.4052 76.251 98.0212 76.251C98.4738 76.251 98.8682 76.321 99.2042 76.461C99.5448 76.601 99.8318 76.79 100.065 77.028C100.303 77.266 100.495 77.539 100.639 77.847C100.784 78.1503 100.889 78.4747 100.954 78.82C101.02 79.1607 101.052 79.5013 101.052 79.842V84H100.016ZM94.5492 84V73.92H95.4802V79.611H95.5852V84H94.5492ZM106.026 84.21C105.274 84.21 104.633 84.0397 104.101 83.699C103.569 83.3583 103.16 82.887 102.876 82.285C102.591 81.683 102.449 80.9923 102.449 80.213C102.449 79.4197 102.593 78.7243 102.883 78.127C103.172 77.5297 103.583 77.0653 104.115 76.734C104.651 76.398 105.288 76.23 106.026 76.23C106.782 76.23 107.426 76.4003 107.958 76.741C108.494 77.077 108.903 77.546 109.183 78.148C109.467 78.7453 109.61 79.4337 109.61 80.213C109.61 81.0063 109.467 81.704 109.183 82.306C108.898 82.9033 108.487 83.37 107.951 83.706C107.414 84.042 106.772 84.21 106.026 84.21ZM106.026 83.223C106.866 83.223 107.491 82.9453 107.902 82.39C108.312 81.83 108.518 81.1043 108.518 80.213C108.518 79.2983 108.31 78.5703 107.895 78.029C107.484 77.4877 106.861 77.217 106.026 77.217C105.461 77.217 104.994 77.3453 104.626 77.602C104.262 77.854 103.989 78.2063 103.807 78.659C103.629 79.107 103.541 79.625 103.541 80.213C103.541 81.123 103.751 81.8533 104.171 82.404C104.591 82.95 105.209 83.223 106.026 83.223ZM116.614 84V80.143C116.614 79.723 116.574 79.338 116.495 78.988C116.415 78.6333 116.287 78.3253 116.11 78.064C115.937 77.798 115.711 77.5927 115.431 77.448C115.155 77.3033 114.819 77.231 114.423 77.231C114.059 77.231 113.737 77.294 113.457 77.42C113.181 77.546 112.948 77.728 112.757 77.966C112.57 78.1993 112.428 78.484 112.33 78.82C112.232 79.156 112.183 79.5387 112.183 79.968L111.455 79.807C111.455 79.0323 111.59 78.3813 111.861 77.854C112.131 77.3267 112.505 76.9277 112.981 76.657C113.457 76.3863 114.003 76.251 114.619 76.251C115.071 76.251 115.466 76.321 115.802 76.461C116.142 76.601 116.429 76.79 116.663 77.028C116.901 77.266 117.092 77.539 117.237 77.847C117.381 78.1503 117.486 78.4747 117.552 78.82C117.617 79.1607 117.65 79.5013 117.65 79.842V84H116.614ZM111.147 84V76.44H112.078V78.302H112.183V84H111.147ZM122.624 84.21C121.887 84.21 121.248 84.0467 120.706 83.72C120.17 83.3933 119.752 82.9337 119.453 82.341C119.155 81.7483 119.005 81.053 119.005 80.255C119.005 79.429 119.152 78.715 119.446 78.113C119.74 77.511 120.153 77.0467 120.685 76.72C121.222 76.3933 121.854 76.23 122.582 76.23C123.329 76.23 123.966 76.4027 124.493 76.748C125.021 77.0887 125.42 77.5787 125.69 78.218C125.961 78.8573 126.085 79.6203 126.061 80.507H125.011V80.143C124.993 79.163 124.78 78.4233 124.374 77.924C123.973 77.4247 123.385 77.175 122.61 77.175C121.798 77.175 121.175 77.4387 120.741 77.966C120.312 78.4933 120.097 79.2447 120.097 80.22C120.097 81.172 120.312 81.9117 120.741 82.439C121.175 82.9617 121.789 83.223 122.582 83.223C123.124 83.223 123.595 83.0993 123.996 82.852C124.402 82.6 124.722 82.2383 124.955 81.767L125.914 82.138C125.616 82.796 125.175 83.307 124.591 83.671C124.013 84.0303 123.357 84.21 122.624 84.21ZM119.733 80.507V79.646H125.508V80.507H119.733ZM133.553 84.21C132.793 84.21 132.149 84.0397 131.622 83.699C131.094 83.3583 130.693 82.8893 130.418 82.292C130.147 81.69 130.007 80.9993 129.998 80.22C130.007 79.4267 130.152 78.7313 130.432 78.134C130.712 77.532 131.115 77.0653 131.643 76.734C132.17 76.398 132.809 76.23 133.561 76.23C134.326 76.23 134.991 76.4167 135.556 76.79C136.125 77.1633 136.515 77.6743 136.725 78.323L135.717 78.645C135.539 78.1923 135.257 77.8423 134.87 77.595C134.487 77.343 134.048 77.217 133.553 77.217C132.998 77.217 132.539 77.3453 132.175 77.602C131.811 77.854 131.54 78.2063 131.363 78.659C131.185 79.1117 131.094 79.632 131.09 80.22C131.099 81.1253 131.309 81.8533 131.72 82.404C132.13 82.95 132.742 83.223 133.553 83.223C134.067 83.223 134.503 83.1063 134.863 82.873C135.227 82.635 135.502 82.2897 135.689 81.837L136.725 82.145C136.445 82.817 136.034 83.3303 135.493 83.685C134.951 84.035 134.305 84.21 133.553 84.21ZM140.291 84.21C139.722 84.21 139.244 84.1073 138.856 83.902C138.474 83.6967 138.187 83.4237 137.995 83.083C137.804 82.7423 137.708 82.3713 137.708 81.97C137.708 81.5593 137.79 81.2093 137.953 80.92C138.121 80.626 138.348 80.3857 138.632 80.199C138.922 80.0123 139.255 79.87 139.633 79.772C140.016 79.6787 140.438 79.597 140.9 79.527C141.367 79.4523 141.822 79.3893 142.265 79.338C142.713 79.282 143.105 79.2283 143.441 79.177L143.077 79.401C143.091 78.6543 142.947 78.1013 142.643 77.742C142.34 77.3827 141.813 77.203 141.061 77.203C140.543 77.203 140.105 77.3197 139.745 77.553C139.391 77.7863 139.141 78.155 138.996 78.659L137.995 78.365C138.168 77.6883 138.516 77.1633 139.038 76.79C139.561 76.4167 140.24 76.23 141.075 76.23C141.766 76.23 142.352 76.3607 142.832 76.622C143.318 76.8787 143.661 77.252 143.861 77.742C143.955 77.9613 144.015 78.2063 144.043 78.477C144.071 78.7477 144.085 79.023 144.085 79.303V84H143.168V82.103L143.434 82.215C143.178 82.8637 142.779 83.3583 142.237 83.699C141.696 84.0397 141.047 84.21 140.291 84.21ZM140.41 83.321C140.891 83.321 141.311 83.2347 141.67 83.062C142.03 82.8893 142.319 82.6537 142.538 82.355C142.758 82.0517 142.9 81.711 142.965 81.333C143.021 81.0903 143.052 80.8243 143.056 80.535C143.061 80.241 143.063 80.0217 143.063 79.877L143.455 80.08C143.105 80.1267 142.725 80.1733 142.314 80.22C141.908 80.2667 141.507 80.3203 141.11 80.381C140.718 80.4417 140.364 80.514 140.046 80.598C139.832 80.6587 139.624 80.745 139.423 80.857C139.223 80.9643 139.057 81.109 138.926 81.291C138.8 81.473 138.737 81.6993 138.737 81.97C138.737 82.1893 138.791 82.4017 138.898 82.607C139.01 82.8123 139.188 82.9827 139.43 83.118C139.678 83.2533 140.004 83.321 140.41 83.321ZM146.048 84V73.71H147.077V84H146.048ZM149.315 84V73.71H150.344V84H149.315ZM155.264 84.203C154.377 84.203 153.647 84.0117 153.073 83.629C152.504 83.2463 152.154 82.7143 152.023 82.033L153.073 81.858C153.185 82.2873 153.439 82.6303 153.836 82.887C154.237 83.139 154.732 83.265 155.32 83.265C155.894 83.265 156.347 83.146 156.678 82.908C157.009 82.6653 157.175 82.3363 157.175 81.921C157.175 81.6877 157.121 81.4987 157.014 81.354C156.911 81.2047 156.699 81.067 156.377 80.941C156.055 80.815 155.574 80.6657 154.935 80.493C154.249 80.3063 153.712 80.1197 153.325 79.933C152.938 79.7463 152.662 79.5317 152.499 79.289C152.336 79.0417 152.254 78.7407 152.254 78.386C152.254 77.9567 152.375 77.581 152.618 77.259C152.861 76.9323 153.197 76.6803 153.626 76.503C154.055 76.321 154.555 76.23 155.124 76.23C155.693 76.23 156.202 76.3233 156.65 76.51C157.103 76.692 157.467 76.9487 157.742 77.28C158.017 77.6113 158.181 77.9963 158.232 78.435L157.182 78.624C157.112 78.1807 156.89 77.8307 156.517 77.574C156.148 77.3127 155.679 77.1773 155.11 77.168C154.573 77.154 154.137 77.2567 153.801 77.476C153.465 77.6907 153.297 77.9777 153.297 78.337C153.297 78.5377 153.358 78.7103 153.479 78.855C153.6 78.995 153.82 79.128 154.137 79.254C154.459 79.38 154.916 79.5177 155.509 79.667C156.204 79.8443 156.75 80.031 157.147 80.227C157.544 80.423 157.826 80.654 157.994 80.92C158.162 81.186 158.246 81.515 158.246 81.907C158.246 82.621 157.98 83.1833 157.448 83.594C156.921 84 156.193 84.203 155.264 84.203ZM161.772 81.249C161.772 80.885 161.789 80.5653 161.821 80.29C161.859 80.01 161.952 79.73 162.101 79.45C162.241 79.184 162.414 78.9647 162.619 78.792C162.825 78.6147 163.039 78.449 163.263 78.295C163.487 78.1363 163.7 77.9497 163.9 77.735C164.082 77.525 164.204 77.3127 164.264 77.098C164.325 76.8833 164.355 76.657 164.355 76.419C164.355 76.181 164.325 75.9687 164.264 75.782C164.208 75.5953 164.12 75.4343 163.998 75.299C163.812 75.0703 163.583 74.914 163.312 74.83C163.042 74.746 162.759 74.704 162.465 74.704C162.176 74.704 161.905 74.746 161.653 74.83C161.406 74.9093 161.201 75.033 161.037 75.201C160.879 75.3503 160.762 75.53 160.687 75.74C160.617 75.95 160.582 76.1717 160.582 76.405H159.518C159.537 76.0363 159.616 75.677 159.756 75.327C159.901 74.9723 160.111 74.676 160.386 74.438C160.662 74.186 160.981 74.004 161.345 73.892C161.714 73.7753 162.085 73.717 162.458 73.717C162.916 73.717 163.35 73.787 163.76 73.927C164.171 74.0623 164.516 74.291 164.796 74.613C165.02 74.851 165.184 75.124 165.286 75.432C165.394 75.7353 165.447 76.0597 165.447 76.405C165.447 76.7923 165.375 77.1563 165.23 77.497C165.086 77.8377 164.883 78.141 164.621 78.407C164.463 78.5797 164.283 78.7407 164.082 78.89C163.882 79.0347 163.688 79.1863 163.501 79.345C163.319 79.499 163.179 79.667 163.081 79.849C162.96 80.073 162.892 80.2853 162.878 80.486C162.869 80.6867 162.864 80.941 162.864 81.249H161.772ZM161.779 84V82.628H162.864V84H161.779Z" fill="#565973"/>
<path d="M29.6567 125.21C28.6487 125.21 27.7901 124.991 27.0807 124.552C26.3714 124.109 25.8277 123.493 25.4497 122.704C25.0764 121.915 24.8897 121.001 24.8897 119.96C24.8897 118.919 25.0764 118.005 25.4497 117.216C25.8277 116.427 26.3714 115.814 27.0807 115.375C27.7901 114.932 28.6487 114.71 29.6567 114.71C30.8187 114.71 31.7801 115.004 32.5407 115.592C33.3061 116.18 33.8381 116.971 34.1367 117.965L32.6527 118.364C32.4567 117.659 32.1067 117.106 31.6027 116.705C31.1034 116.304 30.4547 116.103 29.6567 116.103C28.9427 116.103 28.3477 116.264 27.8717 116.586C27.3957 116.908 27.0364 117.358 26.7937 117.937C26.5557 118.516 26.4367 119.19 26.4367 119.96C26.4321 120.73 26.5487 121.404 26.7867 121.983C27.0294 122.562 27.3887 123.012 27.8647 123.334C28.3454 123.656 28.9427 123.817 29.6567 123.817C30.4547 123.817 31.1034 123.616 31.6027 123.215C32.1067 122.809 32.4567 122.256 32.6527 121.556L34.1367 121.955C33.8381 122.949 33.3061 123.74 32.5407 124.328C31.7801 124.916 30.8187 125.21 29.6567 125.21ZM38.9593 125.21C38.2033 125.21 37.5476 125.04 36.9923 124.699C36.437 124.358 36.0076 123.889 35.7043 123.292C35.4056 122.69 35.2563 121.997 35.2563 121.213C35.2563 120.424 35.4103 119.731 35.7183 119.134C36.0263 118.532 36.458 118.065 37.0133 117.734C37.5686 117.398 38.2173 117.23 38.9593 117.23C39.7153 117.23 40.371 117.4 40.9263 117.741C41.4816 118.082 41.911 118.551 42.2143 119.148C42.5176 119.745 42.6693 120.434 42.6693 121.213C42.6693 122.002 42.5153 122.697 42.2073 123.299C41.904 123.896 41.4746 124.365 40.9193 124.706C40.364 125.042 39.7106 125.21 38.9593 125.21ZM38.9593 123.831C39.6826 123.831 40.2216 123.588 40.5763 123.103C40.9356 122.613 41.1153 121.983 41.1153 121.213C41.1153 120.424 40.9333 119.794 40.5693 119.323C40.21 118.847 39.6733 118.609 38.9593 118.609C38.4693 118.609 38.0656 118.721 37.7483 118.945C37.431 119.164 37.1953 119.47 37.0413 119.862C36.8873 120.249 36.8103 120.7 36.8103 121.213C36.8103 122.006 36.9923 122.641 37.3563 123.117C37.7203 123.593 38.2546 123.831 38.9593 123.831ZM49.5135 125V121.283C49.5135 120.989 49.4879 120.688 49.4365 120.38C49.3899 120.067 49.2965 119.778 49.1565 119.512C49.0212 119.246 48.8275 119.031 48.5755 118.868C48.3282 118.705 48.0039 118.623 47.6025 118.623C47.3412 118.623 47.0939 118.667 46.8605 118.756C46.6272 118.84 46.4219 118.978 46.2445 119.169C46.0719 119.36 45.9342 119.612 45.8315 119.925C45.7335 120.238 45.6845 120.618 45.6845 121.066L44.7745 120.723C44.7745 120.037 44.9029 119.433 45.1595 118.91C45.4162 118.383 45.7849 117.972 46.2655 117.678C46.7462 117.384 47.3272 117.237 48.0085 117.237C48.5312 117.237 48.9699 117.321 49.3245 117.489C49.6792 117.657 49.9662 117.879 50.1855 118.154C50.4095 118.425 50.5799 118.721 50.6965 119.043C50.8132 119.365 50.8925 119.68 50.9345 119.988C50.9765 120.296 50.9975 120.567 50.9975 120.8V125H49.5135ZM44.2005 125V117.44H45.5095V119.624H45.6845V125H44.2005ZM57.1468 125C56.6708 125.093 56.2042 125.133 55.7468 125.119C55.2895 125.105 54.8812 125.016 54.5218 124.853C54.1625 124.69 53.8918 124.433 53.7098 124.083C53.5465 123.77 53.4578 123.453 53.4438 123.131C53.4345 122.804 53.4298 122.436 53.4298 122.025V115.34H54.8998V121.955C54.8998 122.258 54.9022 122.522 54.9068 122.746C54.9162 122.97 54.9652 123.159 55.0538 123.313C55.2218 123.602 55.4878 123.768 55.8518 123.81C56.2205 123.847 56.6522 123.831 57.1468 123.761V125ZM51.9808 118.616V117.44H57.1468V118.616H51.9808ZM60.8757 125.21C60.3157 125.21 59.8467 125.107 59.4687 124.902C59.0907 124.692 58.8037 124.417 58.6077 124.076C58.4164 123.731 58.3207 123.353 58.3207 122.942C58.3207 122.559 58.3884 122.223 58.5237 121.934C58.6591 121.645 58.8597 121.4 59.1257 121.199C59.3917 120.994 59.7184 120.828 60.1057 120.702C60.4417 120.604 60.8221 120.518 61.2467 120.443C61.6714 120.368 62.1171 120.298 62.5837 120.233C63.0551 120.168 63.5217 120.102 63.9837 120.037L63.4517 120.331C63.4611 119.738 63.3351 119.3 63.0737 119.015C62.8171 118.726 62.3737 118.581 61.7437 118.581C61.3471 118.581 60.9831 118.674 60.6517 118.861C60.3204 119.043 60.0894 119.346 59.9587 119.771L58.5937 119.351C58.7804 118.702 59.1351 118.187 59.6577 117.804C60.1851 117.421 60.8851 117.23 61.7577 117.23C62.4344 117.23 63.0224 117.347 63.5217 117.58C64.0257 117.809 64.3944 118.173 64.6277 118.672C64.7491 118.919 64.8237 119.181 64.8517 119.456C64.8797 119.731 64.8937 120.028 64.8937 120.345V125H63.5987V123.271L63.8507 123.495C63.5381 124.074 63.1391 124.505 62.6537 124.79C62.1731 125.07 61.5804 125.21 60.8757 125.21ZM61.1347 124.013C61.5501 124.013 61.9071 123.941 62.2057 123.796C62.5044 123.647 62.7447 123.458 62.9267 123.229C63.1087 123 63.2277 122.762 63.2837 122.515C63.3631 122.291 63.4074 122.039 63.4167 121.759C63.4307 121.479 63.4377 121.255 63.4377 121.087L63.9137 121.262C63.4517 121.332 63.0317 121.395 62.6537 121.451C62.2757 121.507 61.9327 121.563 61.6247 121.619C61.3214 121.67 61.0507 121.733 60.8127 121.808C60.6121 121.878 60.4324 121.962 60.2737 122.06C60.1197 122.158 59.9961 122.277 59.9027 122.417C59.8141 122.557 59.7697 122.727 59.7697 122.928C59.7697 123.124 59.8187 123.306 59.9167 123.474C60.0147 123.637 60.1641 123.768 60.3647 123.866C60.5654 123.964 60.8221 124.013 61.1347 124.013ZM69.9454 125.21C69.1708 125.21 68.5128 125.037 67.9714 124.692C67.4301 124.347 67.0148 123.873 66.7254 123.271C66.4408 122.669 66.2961 121.985 66.2914 121.22C66.2961 120.441 66.4454 119.752 66.7394 119.155C67.0334 118.553 67.4534 118.082 67.9994 117.741C68.5454 117.4 69.2011 117.23 69.9664 117.23C70.7924 117.23 71.4971 117.435 72.0804 117.846C72.6684 118.257 73.0558 118.819 73.2424 119.533L71.7864 119.953C71.6418 119.528 71.4038 119.199 71.0724 118.966C70.7458 118.728 70.3701 118.609 69.9454 118.609C69.4648 118.609 69.0704 118.723 68.7624 118.952C68.4544 119.176 68.2258 119.484 68.0764 119.876C67.9271 120.268 67.8501 120.716 67.8454 121.22C67.8501 121.999 68.0274 122.629 68.3774 123.11C68.7321 123.591 69.2548 123.831 69.9454 123.831C70.4168 123.831 70.7971 123.724 71.0864 123.509C71.3804 123.29 71.6044 122.977 71.7584 122.571L73.2424 122.921C72.9951 123.658 72.5868 124.225 72.0174 124.622C71.4481 125.014 70.7574 125.21 69.9454 125.21ZM78.9945 125C78.5185 125.093 78.0518 125.133 77.5945 125.119C77.1371 125.105 76.7288 125.016 76.3695 124.853C76.0101 124.69 75.7395 124.433 75.5575 124.083C75.3941 123.77 75.3055 123.453 75.2915 123.131C75.2821 122.804 75.2775 122.436 75.2775 122.025V115.34H76.7475V121.955C76.7475 122.258 76.7498 122.522 76.7545 122.746C76.7638 122.97 76.8128 123.159 76.9015 123.313C77.0695 123.602 77.3355 123.768 77.6995 123.81C78.0681 123.847 78.4998 123.831 78.9945 123.761V125ZM73.8285 118.616V117.44H78.9945V118.616H73.8285ZM86.2401 125.203C85.7175 125.203 85.2788 125.119 84.9241 124.951C84.5695 124.783 84.2801 124.564 84.0561 124.293C83.8368 124.018 83.6688 123.719 83.5521 123.397C83.4355 123.075 83.3561 122.76 83.3141 122.452C83.2721 122.144 83.2511 121.873 83.2511 121.64V117.44H84.7351V121.157C84.7351 121.451 84.7585 121.754 84.8051 122.067C84.8565 122.375 84.9498 122.662 85.0851 122.928C85.2251 123.194 85.4188 123.409 85.6661 123.572C85.9181 123.735 86.2448 123.817 86.6461 123.817C86.9075 123.817 87.1548 123.775 87.3881 123.691C87.6215 123.602 87.8245 123.462 87.9971 123.271C88.1745 123.08 88.3121 122.828 88.4101 122.515C88.5128 122.202 88.5641 121.822 88.5641 121.374L89.4741 121.717C89.4741 122.403 89.3458 123.01 89.0891 123.537C88.8325 124.06 88.4638 124.468 87.9831 124.762C87.5025 125.056 86.9215 125.203 86.2401 125.203ZM88.7391 125V122.816H88.5641V117.44H90.0411V125H88.7391ZM94.8954 125.203C93.9761 125.203 93.2271 125 92.6484 124.594C92.0697 124.188 91.7151 123.616 91.5844 122.879L93.0824 122.648C93.1757 123.04 93.3904 123.35 93.7264 123.579C94.0671 123.803 94.4894 123.915 94.9934 123.915C95.4507 123.915 95.8077 123.822 96.0644 123.635C96.3257 123.448 96.4564 123.192 96.4564 122.865C96.4564 122.674 96.4097 122.52 96.3164 122.403C96.2277 122.282 96.0387 122.167 95.7494 122.06C95.4601 121.953 95.0191 121.82 94.4264 121.661C93.7777 121.493 93.2621 121.313 92.8794 121.122C92.5014 120.926 92.2307 120.7 92.0674 120.443C91.9087 120.182 91.8294 119.867 91.8294 119.498C91.8294 119.041 91.9507 118.642 92.1934 118.301C92.4361 117.96 92.7767 117.697 93.2154 117.51C93.6587 117.323 94.1767 117.23 94.7694 117.23C95.3481 117.23 95.8637 117.321 96.3164 117.503C96.7691 117.685 97.1354 117.944 97.4154 118.28C97.6954 118.611 97.8634 119.001 97.9194 119.449L96.4214 119.722C96.3701 119.358 96.1997 119.071 95.9104 118.861C95.6211 118.651 95.2454 118.537 94.7834 118.518C94.3401 118.499 93.9807 118.574 93.7054 118.742C93.4301 118.905 93.2924 119.132 93.2924 119.421C93.2924 119.589 93.3437 119.731 93.4464 119.848C93.5537 119.965 93.7591 120.077 94.0624 120.184C94.3657 120.291 94.8137 120.42 95.4064 120.569C96.0411 120.732 96.5451 120.914 96.9184 121.115C97.2917 121.311 97.5577 121.547 97.7164 121.822C97.8797 122.093 97.9614 122.422 97.9614 122.809C97.9614 123.556 97.6884 124.141 97.1424 124.566C96.6011 124.991 95.8521 125.203 94.8954 125.203Z" fill="#22C55E"/>
<path d="M116.411 124.411L117.589 125.589L123.178 120L117.589 114.411L116.411 115.589L119.988 119.167H112V120.833H119.988L116.411 124.411Z" fill="#22C55E"/>
</svg>
