<svg width="119" height="30" viewBox="0 0 119 30" fill="none" xmlns="http://www.w3.org/2000/svg">
<path d="M5 27.65H30.65V2H5V27.65ZM25.713 12.357H20.293V6.937H25.713V12.357ZM9.936 6.937H15.359V17.293H25.713V22.713H9.936V6.937ZM47.353 2C44.8164 2 42.3368 2.75218 40.2278 4.16141C38.1187 5.57064 36.4749 7.57363 35.5042 9.9171C34.5335 12.2606 34.2796 14.8392 34.7744 17.327C35.2693 19.8148 36.4907 22.1 38.2843 23.8936C40.0779 25.6873 42.3631 26.9087 44.8509 27.4036C47.3388 27.8984 49.9174 27.6445 52.2609 26.6738C54.6044 25.7031 56.6073 24.0593 58.0166 21.9502C59.4258 19.8411 60.178 17.3615 60.178 14.825C60.174 11.4248 58.8215 8.16504 56.4172 5.76075C54.0129 3.35645 50.7532 2.00397 47.353 2ZM47.353 22.713C45.7929 22.713 44.2678 22.2504 42.9706 21.3836C41.6735 20.5169 40.6624 19.285 40.0654 17.8436C39.4684 16.4023 39.3122 14.8163 39.6165 13.2861C39.9209 11.756 40.6722 10.3505 41.7753 9.24734C42.8785 8.14419 44.284 7.39293 45.8141 7.08857C47.3442 6.78421 48.9302 6.94042 50.3716 7.53744C51.8129 8.13446 53.0449 9.14549 53.9116 10.4427C54.7784 11.7398 55.241 13.2649 55.241 14.825C55.2378 16.9161 54.4057 18.9206 52.9271 20.3992C51.4485 21.8778 49.444 22.7098 47.353 22.713ZM106.072 2C103.535 1.99981 101.056 2.75181 98.9465 4.16092C96.8373 5.57003 95.1934 7.57295 94.2225 9.9164C93.2517 12.2598 92.9975 14.8386 93.4923 17.3264C93.987 19.8143 95.2084 22.0996 97.002 23.8933C98.7955 25.687 101.081 26.9086 103.569 27.4035C106.056 27.8984 108.635 27.6445 110.979 26.6739C113.322 25.7032 115.325 24.0594 116.734 21.9503C118.144 19.8412 118.896 17.3616 118.896 14.825C118.892 11.425 117.54 8.16536 115.136 5.7611C112.732 3.35683 109.472 2.00424 106.072 2ZM106.072 22.713C104.512 22.7132 102.987 22.2507 101.689 21.3841C100.392 20.5175 99.3809 19.2856 98.7837 17.8443C98.1865 16.403 98.0302 14.8169 98.3344 13.2867C98.6387 11.7566 99.3899 10.351 100.493 9.2477C101.596 8.14444 103.002 7.39308 104.532 7.08864C106.062 6.7842 107.648 6.94035 109.089 7.53735C110.531 8.13434 111.763 9.14536 112.63 10.4426C113.496 11.7398 113.959 13.2649 113.959 14.825C113.956 16.9159 113.124 18.9202 111.645 20.3988C110.167 21.8774 108.163 22.7096 106.072 22.713ZM76.712 2C74.1754 2 71.6958 2.75218 69.5868 4.16141C67.4777 5.57064 65.8339 7.57363 64.8632 9.9171C63.8925 12.2606 63.6386 14.8392 64.1334 17.327C64.6283 19.8148 65.8497 22.1 67.6433 23.8936C69.4369 25.6873 71.7221 26.9087 74.2099 27.4036C76.6977 27.8984 79.2764 27.6445 81.6199 26.6738C83.9634 25.7031 85.9663 24.0593 87.3756 21.9502C88.7848 19.8411 89.537 17.3615 89.537 14.825C89.533 11.4248 88.1805 8.16504 85.7762 5.76075C83.3719 3.35645 80.1122 2.00397 76.712 2ZM76.712 22.713C75.2584 22.7137 73.833 22.3128 72.5929 21.5545C71.3529 20.7962 70.3464 19.7101 69.6847 18.4159C69.0231 17.1217 68.7318 15.6698 68.8432 14.2206C68.9546 12.7713 69.4642 11.381 70.3159 10.2031C71.1676 9.02526 72.3282 8.10561 73.6695 7.54571C75.0109 6.9858 76.4809 6.80742 77.9172 7.03024C79.3536 7.25307 80.7004 7.86843 81.8091 8.80842C82.9178 9.7484 83.7452 10.9765 84.2 12.357H76.712V17.293H84.2C83.6791 18.8683 82.6755 20.2397 81.3314 21.2125C79.9874 22.1854 78.3712 22.7103 76.712 22.713Z" fill="#B4B7C9"/>
</svg>
