<svg width="20" height="20" viewBox="0 0 20 20" fill="none" xmlns="http://www.w3.org/2000/svg">
<path d="M9.99898 6.14746C7.87065 6.14746 6.14648 7.87246 6.14648 9.99996C6.14648 12.1283 7.87065 13.8533 9.99898 13.8533C12.1257 13.8533 13.8515 12.1283 13.8515 9.99996C13.8515 7.87246 12.1257 6.14746 9.99898 6.14746ZM9.99898 12.5033C8.61648 12.5033 7.49565 11.3825 7.49565 10.0008C7.49565 8.61829 8.61648 7.49829 9.99898 7.49829C11.3815 7.49829 12.5007 8.61829 12.5007 10.0008C12.5007 11.3825 11.3815 12.5033 9.99898 12.5033Z" fill="white"/>
<path d="M14.0048 6.90409C14.5009 6.90409 14.9031 6.50189 14.9031 6.00575C14.9031 5.50962 14.5009 5.10742 14.0048 5.10742C13.5086 5.10742 13.1064 5.50962 13.1064 6.00575C13.1064 6.50189 13.5086 6.90409 14.0048 6.90409Z" fill="white"/>
<path d="M17.1111 5.09224C16.7203 4.08474 15.9245 3.28807 14.917 2.89891C14.3345 2.67974 13.7186 2.56224 13.0953 2.54891C12.2928 2.51391 12.0386 2.50391 10.0036 2.50391C7.96862 2.50391 7.70779 2.50391 6.91195 2.54891C6.29029 2.56141 5.67445 2.67891 5.09195 2.89891C4.08362 3.28807 3.28779 4.08474 2.89779 5.09224C2.67862 5.67557 2.56112 6.29057 2.54862 6.91391C2.51279 7.71557 2.50195 7.96974 2.50195 10.0056C2.50195 12.0406 2.50195 12.2997 2.54862 13.0972C2.56112 13.7206 2.67862 14.3356 2.89779 14.9197C3.28862 15.9264 4.08445 16.7231 5.09279 17.1131C5.67279 17.3397 6.28862 17.4681 6.91362 17.4881C7.71612 17.5231 7.97029 17.5339 10.0053 17.5339C12.0403 17.5339 12.3011 17.5339 13.097 17.4881C13.7195 17.4756 14.3353 17.3572 14.9186 17.1389C15.9261 16.7481 16.722 15.9522 17.1128 14.9447C17.332 14.3614 17.4495 13.7464 17.462 13.1231C17.4978 12.3214 17.5086 12.0672 17.5086 10.0314C17.5086 7.99557 17.5086 7.73724 17.462 6.93974C17.4511 6.30807 17.3345 5.68224 17.1111 5.09224ZM16.0961 13.0356C16.0903 13.5156 16.0036 13.9914 15.837 14.4422C15.5828 15.0981 15.0653 15.6164 14.4103 15.8681C13.9645 16.0339 13.4945 16.1206 13.0186 16.1272C12.227 16.1639 12.0036 16.1731 9.97362 16.1731C7.94195 16.1731 7.73445 16.1731 6.92779 16.1272C6.45362 16.1214 5.98195 16.0339 5.53695 15.8681C4.87945 15.6172 4.35862 15.0989 4.10445 14.4422C3.94112 13.9972 3.85279 13.5264 3.84529 13.0514C3.80945 12.2597 3.80112 12.0364 3.80112 10.0064C3.80112 7.97557 3.80112 7.76807 3.84529 6.96057C3.85112 6.48057 3.93779 6.00557 4.10445 5.55474C4.35862 4.89724 4.87945 4.37974 5.53695 4.12807C5.98195 3.96307 6.45362 3.87557 6.92779 3.86891C7.72029 3.83307 7.94279 3.82307 9.97362 3.82307C12.0045 3.82307 12.2128 3.82307 13.0186 3.86891C13.4945 3.87474 13.9645 3.96224 14.4103 4.12807C15.0653 4.38057 15.5828 4.89891 15.837 5.55474C16.0003 5.99974 16.0886 6.47057 16.0961 6.94557C16.132 7.73807 16.1411 7.96057 16.1411 9.99141C16.1411 12.0214 16.1411 12.2397 16.1053 13.0364H16.0961V13.0356Z" fill="white"/>
</svg>
